<?xml version="1.0" encoding="UTF-8"?>
<svg id="Layer_1" data-name="Layer 1" xmlns="http://www.w3.org/2000/svg" viewBox="0 0 50 50">
  <defs>
    <style>
      .cls-1 {
        fill: #fff;
      }

      .cls-2 {
        fill: #2b4a80;
      }
    </style>
  </defs>
  <circle class="cls-2" cx="25" cy="25" r="25"/>
  <path class="cls-1" d="M36.11,37.5c-13.02,0-23.61-10.59-23.61-23.61,0-.77,.62-1.39,1.39-1.39h5.13c.77,0,1.39,.62,1.39,1.39,0,2.4,.52,4.69,1.55,6.79,.16,.33,.19,.72,.06,1.06-.12,.35-.38,.64-.71,.8l-2.07,1c1.72,3,4.21,5.49,7.21,7.21l1-2.07c.16-.33,.45-.59,.8-.71,.35-.12,.73-.1,1.06,.06,2.11,1.03,4.39,1.55,6.79,1.55,.77,0,1.39,.62,1.39,1.39v5.13h0c0,.77-.62,1.39-1.39,1.39Z"/>
</svg>