<?xml version="1.0" encoding="UTF-8"?>
<svg id="Layer_1" data-name="Layer 1" xmlns="http://www.w3.org/2000/svg" xmlns:xlink="http://www.w3.org/1999/xlink" viewBox="0 0 130 130">
  <defs>
    <clipPath id="clippath">
      <rect x="30" y="30" width="70" height="70" style="fill: none;"/>
    </clipPath>
  </defs>
  <g>
    <path d="M65,129.02c-16.86,0-33.36-6.83-45.26-18.74C7.82,98.36.98,81.85.98,65S7.82,31.64,19.74,19.74C31.64,7.82,48.15.98,65,.98s33.35,6.83,45.26,18.74c11.92,11.92,18.75,28.42,18.75,45.27s-6.83,33.35-18.75,45.26c-11.91,11.92-28.4,18.75-45.26,18.75v.02ZM65,2.96c-16.34,0-32.32,6.63-43.87,18.18C9.58,32.68,2.95,48.66,2.95,65s6.63,32.32,18.18,43.88c11.53,11.54,27.53,18.17,43.87,18.17s32.32-6.63,43.87-18.18c11.55-11.55,18.18-27.54,18.18-43.87s-6.63-32.32-18.18-43.87c-11.55-11.56-27.54-18.18-43.87-18.18v.01Z" style="fill: #2a487c;"/>
    <path d="M65,130c-17.11,0-33.87-6.94-45.96-19.03C6.94,98.87,0,82.11,0,65S6.94,31.13,19.04,19.04C31.13,6.94,47.88,0,65,0s33.86,6.94,45.96,19.03c12.1,12.1,19.04,28.86,19.04,45.97s-6.94,33.86-19.04,45.96c-12.09,12.1-28.84,19.04-45.96,19.04ZM65,128.03c16.6,0,32.84-6.73,44.57-18.46,11.73-11.73,18.46-27.98,18.46-44.57,0,16.58-6.73,32.82-18.47,44.56-11.73,11.74-27.97,18.47-44.56,18.47ZM64.83,128.03h0ZM64.59,128.03h0ZM64.57,128.03h0ZM64.54,128.03h0ZM64.45,128.03h0ZM64.43,128.03h0ZM64.41,128.03h0ZM64.29,128.03h0ZM64.27,128.03h0ZM64.22,128.03h0ZM1.97,65c0,16.6,6.73,32.84,18.46,44.58,11.54,11.54,27.45,18.23,43.76,18.45-16.32-.21-32.22-6.91-43.76-18.45C8.7,97.83,1.97,81.59,1.97,65ZM65,3.94c-16.07,0-31.81,6.52-43.17,17.89C10.46,33.19,3.94,48.93,3.94,65s6.52,31.81,17.89,43.18c11.36,11.36,27.09,17.88,43.17,17.88s31.81-6.52,43.17-17.89c11.37-11.37,17.89-27.11,17.89-43.17s-6.52-31.81-17.89-43.18c-11.36-11.36-27.09-17.88-43.17-17.88ZM97.57,11.06c4.35,2.61,8.39,5.75,12,9.37,11.74,11.74,18.47,27.98,18.47,44.57,0-16.6-6.73-32.84-18.46-44.58-3.61-3.61-7.65-6.75-12-9.36h-.01ZM65,1.97c-16.6,0-32.84,6.73-44.57,18.46C8.7,32.16,1.97,48.4,1.97,65c0-16.59,6.73-32.83,18.47-44.56C32.17,8.7,48.41,1.97,65,1.97Z" style="fill: #2a487c;"/>
  </g>
  <g style="clip-path: url(#clippath);">
    <path d="M49.624,32.051c-4.661,0-9.13,1.852-12.426,5.147-3.295,3.296-5.146,7.765-5.147,12.426,0,26.69,21.636,48.326,48.326,48.326,4.661,0,9.13-1.852,12.426-5.147,3.295-3.296,5.147-7.765,5.147-12.426l-21.966-8.787-4.393,10.983h-.002c-13.343,0-24.16-10.817-24.16-24.161v-.002l10.983-4.393-8.787-21.966Z" style="fill: none; stroke: #000; stroke-linecap: round; stroke-linejoin: round; stroke-width: 2.5px;"/>
  </g>
</svg>