<?xml version="1.0" encoding="UTF-8"?>
<svg id="Layer_1" data-name="Layer 1" xmlns="http://www.w3.org/2000/svg" viewBox="0 0 130 130">
  <defs>
    <style>
      .cls-1 {
        fill: #2a487c;
      }
    </style>
  </defs>
  <g>
    <path class="cls-1" d="M65,129.02c-16.86,0-33.36-6.83-45.26-18.74C7.82,98.36,.98,81.85,.98,65S7.82,31.64,19.74,19.74C31.64,7.82,48.15,.98,65,.98s33.35,6.83,45.26,18.74c11.92,11.92,18.75,28.42,18.75,45.27s-6.83,33.35-18.75,45.26c-11.91,11.92-28.4,18.75-45.26,18.75Zm0-126.06c-16.34,0-32.32,6.63-43.87,18.18C9.58,32.68,2.95,48.66,2.95,65s6.63,32.32,18.18,43.88c11.53,11.54,27.53,18.17,43.87,18.17s32.32-6.63,43.87-18.18c11.55-11.55,18.18-27.54,18.18-43.87s-6.63-32.32-18.18-43.87C97.32,9.57,81.33,2.95,65,2.95Z"/>
    <path class="cls-1" d="M65,130c-17.11,0-33.87-6.94-45.96-19.03C6.94,98.87,0,82.11,0,65S6.94,31.13,19.04,19.04C31.13,6.94,47.88,0,65,0s33.86,6.94,45.96,19.03c12.1,12.1,19.04,28.86,19.04,45.97s-6.94,33.86-19.04,45.96c-12.09,12.1-28.84,19.04-45.96,19.04Zm0-1.97c16.6,0,32.84-6.73,44.57-18.46,11.73-11.73,18.46-27.98,18.46-44.57,0,16.58-6.73,32.82-18.47,44.56-11.73,11.74-27.97,18.47-44.56,18.47Zm-.17,0h0Zm-.24,0h0Zm-.02,0h0Zm-.03,0h0Zm-.09,0h0Zm-.02,0h0Zm-.02,0h0Zm-.12,0h0Zm-.02,0h0Zm-.05,0h0ZM1.97,65c0,16.6,6.73,32.84,18.46,44.58,11.54,11.54,27.45,18.23,43.76,18.45-16.32-.21-32.22-6.91-43.76-18.45C8.7,97.83,1.97,81.59,1.97,65ZM65,3.94c-16.07,0-31.81,6.52-43.17,17.89C10.46,33.19,3.94,48.93,3.94,65s6.52,31.81,17.89,43.18c11.36,11.36,27.09,17.88,43.17,17.88s31.81-6.52,43.17-17.89c11.37-11.37,17.89-27.11,17.89-43.17s-6.52-31.81-17.89-43.18C96.81,10.46,81.08,3.94,65,3.94Zm32.57,7.12c4.35,2.61,8.39,5.75,12,9.37,11.74,11.74,18.47,27.98,18.47,44.57,0-16.6-6.73-32.84-18.46-44.58-3.61-3.61-7.65-6.75-12-9.36ZM65,1.97c-16.6,0-32.84,6.73-44.57,18.46C8.7,32.16,1.97,48.4,1.97,65c0-16.59,6.73-32.83,18.47-44.56C32.17,8.7,48.41,1.97,65,1.97Z"/>
  </g>
  <g>
    <path d="M91.31,41.21c.38,0,.95,.12,1.16,.29,.09,.08,.15,.23,.2,.5,.07,.46,.15,1.38,.08,2.01-.97,10.21-5.25,35.29-7.23,45.84-.65,3.52-1.76,4.86-2.59,4.93-.15,.01-.29,.02-.44,.02-2.03,0-3.96-1.38-6.2-2.97-.71-.51-1.45-1.03-2.23-1.54-2.9-1.9-5.19-3.46-7.41-4.97-2.07-1.41-4.22-2.87-6.87-4.62-2.2-1.45-2.38-2.24-2.39-2.39-.06-.69,1.39-2.08,2.55-3.21,.51-.49,1.03-.99,1.56-1.54,.19-.2,1.47-1.38,2.81-2.64,14.28-13.28,15.08-14.46,15.32-15.51,.17-.7,.16-2.15-.91-3.08-.37-.34-1.02-.74-2-.74-.43,0-.79,.07-1.1,.14-.64,.14-1.2,.27-27.7,18.15-2.14,1.47-4.04,2.21-5.65,2.21h-.11c-1.63-.04-5.13-.88-9.37-2.26-.49-.16-.97-.31-1.43-.45-1.5-.47-3.51-1.1-4.06-1.6,.23-.27,1.02-.96,3.46-1.92h.03l.03-.02c18.58-8.09,31.13-13.5,37.29-16.06,16.47-6.85,21.01-8.53,23.15-8.57h.02m0-2h-.05c-2.41,.04-6.1,1.33-23.88,8.72-6.22,2.59-18.66,7.95-37.32,16.08h0c-3.03,1.21-4.62,2.38-4.76,3.54-.28,2.21,2.91,2.9,6.91,4.21,3.27,1.06,7.67,2.31,9.95,2.35h.16c2.04,0,4.3-.86,6.78-2.57,17.44-11.77,26.43-17.72,27-17.84,.2-.04,.43-.09,.66-.09s.47,.05,.66,.22c.38,.33,.34,.96,.3,1.13-.31,1.35-16.69,16.25-17.63,17.22-3.6,3.74-7.7,6.03-1.38,10.19,5.47,3.6,8.65,5.9,14.28,9.59,3.4,2.23,6.1,4.84,9.52,4.84,.2,0,.41,0,.62-.03,1.71-.16,3.48-1.76,4.37-6.56,2.12-11.33,6.29-35.89,7.25-46.01,.09-.89-.02-2.02-.1-2.52-.09-.5-.27-1.21-.91-1.73-.75-.6-1.88-.75-2.43-.75h0Z"/>
    <path d="M82.48,97.18c-2.79,0-5.12-1.66-7.58-3.42-.69-.49-1.4-1-2.14-1.48-2.92-1.91-5.21-3.48-7.43-4.99-2.07-1.41-4.21-2.87-6.85-4.6-2.23-1.46-3.32-2.78-3.45-4.15-.17-1.82,1.42-3.36,3.27-5.14,.49-.47,1-.96,1.5-1.48,.23-.23,1.23-1.17,2.76-2.59,3.94-3.66,14.4-13.38,14.78-14.47,.02-.1,.04-.56-.18-.75-.2-.18-.63-.12-.96-.05-.73,.25-9.78,6.23-26.91,17.79-2.53,1.75-4.89,2.63-6.99,2.63h-.16c-2.54-.04-7.4-1.5-10.07-2.37-.49-.16-.96-.31-1.42-.46-3.37-1.07-6.03-1.91-5.75-4.16,.16-1.32,1.75-2.54,4.99-3.84,18.54-8.08,31.1-13.49,37.31-16.08,17.54-7.29,21.28-8.6,23.7-8.74v-.02h.38c.75,0,1.9,.22,2.66,.83,.72,.58,.94,1.35,1.04,1.96,.08,.49,.2,1.67,.1,2.62-.98,10.3-5.28,35.47-7.25,46.04-1,5.4-3.11,6.72-4.7,6.86-.21,.03-.44,.03-.66,.03v.03Zm-5.74-43.94c.38,0,.67,.1,.91,.32,.52,.45,.47,1.25,.42,1.5-.22,.96-5.9,6.39-15,14.84-1.46,1.36-2.52,2.34-2.73,2.56-.5,.52-1.02,1.02-1.52,1.5-1.7,1.64-3.18,3.06-3.04,4.53,.1,1.1,1.12,2.28,3.11,3.59,2.64,1.74,4.78,3.2,6.86,4.61,2.22,1.51,4.51,3.07,7.42,4.98,.75,.49,1.47,1,2.17,1.5,2.48,1.77,4.58,3.29,7.19,3.28,.17,0,.35,0,.52-.03,1.93-.18,3.33-2.34,4.05-6.26,1.98-10.56,6.27-35.7,7.25-45.98,.08-.82-.01-1.9-.1-2.43-.09-.5-.25-1.07-.78-1.5-.59-.47-1.47-.63-2.01-.66h-.23c-2.28,.04-5.67,1.19-23.74,8.7-6.21,2.59-18.76,7.99-37.31,16.08-3.6,1.44-4.46,2.56-4.54,3.24-.2,1.56,1.76,2.25,5.23,3.35,.46,.15,.94,.3,1.43,.46,2.12,.69,7.31,2.29,9.84,2.33h.15c1.95,0,4.16-.84,6.57-2.5,23.12-15.61,26.69-17.81,27.14-17.9,.24-.05,.49-.1,.74-.1h0Zm5.76,41.93c-2.14,0-4.1-1.39-6.37-3.01-.75-.54-1.49-1.06-2.26-1.56-2.81-1.84-5.04-3.36-7.2-4.83l-.21-.15c-2.07-1.41-4.22-2.87-6.87-4.62-2.24-1.48-2.54-2.37-2.56-2.68-.07-.78,.97-1.85,2.56-3.4l.1-.1c.51-.49,1.03-.98,1.55-1.53,.11-.12,.64-.61,1.33-1.26l1.49-1.39c14.15-13.16,15-14.4,15.21-15.32,.14-.58,.16-1.89-.79-2.71-.33-.3-.89-.65-1.75-.65-.39,0-.72,.06-1.02,.13-.55,.12-1.12,.24-27.57,18.1-2.2,1.51-4.17,2.27-5.86,2.27h-.11c-1.69-.04-5.23-.89-9.49-2.28-.49-.16-.96-.31-1.42-.45-1.97-.62-3.64-1.17-4.2-1.68l-.27-.24,.24-.28c.29-.34,1.14-1.06,3.61-2.03l.07-.03c19.1-8.32,31.29-13.57,37.27-16.05,16.52-6.87,21.09-8.56,23.29-8.6l.03,.75c-2.1,.04-6.61,1.72-23.03,8.54-5.98,2.48-18.18,7.74-37.28,16.06l-.09,.06h-.05c-1.67,.66-2.51,1.17-2.92,1.49,.79,.42,2.42,.93,3.56,1.29,.46,.14,.95,.29,1.44,.45,4.19,1.36,7.65,2.2,9.26,2.24h.1c1.54,0,3.37-.72,5.44-2.14,26.58-17.93,27.11-18.05,27.83-18.21,.34-.08,.72-.15,1.18-.15,1.11,0,1.84,.46,2.25,.84,1.21,1.05,1.21,2.66,1.02,3.44-.26,1.15-1.03,2.31-15.43,15.7l-1.49,1.39c-.68,.63-1.19,1.11-1.3,1.23-.53,.56-1.06,1.06-1.57,1.55l-.1,.1c-.83,.81-2.38,2.31-2.33,2.81,0,.01,.11,.72,2.22,2.11,2.65,1.75,4.8,3.21,6.87,4.62l.21,.15c2.16,1.47,4.39,2.98,7.19,4.82,.78,.51,1.53,1.04,2.24,1.55,2.21,1.57,4.08,2.9,5.98,2.9,.14,0,.27,0,.41-.02,.53-.04,1.6-1.07,2.25-4.62,1.97-10.48,6.24-35.48,7.23-45.81,.07-.6-.01-1.49-.08-1.92-.04-.22-.08-.28-.08-.28-.08-.06-.54-.19-.91-.19v-.75c.39,0,1.08,.12,1.4,.37,.21,.19,.28,.46,.33,.72,.08,.49,.16,1.45,.08,2.12-.98,10.35-5.27,35.38-7.23,45.87-.84,4.57-2.33,5.18-2.93,5.23-.17,.01-.31,.02-.47,.02v.02Z"/>
  </g>
</svg>