<?xml version="1.0" encoding="UTF-8"?>
<svg id="Layer_1" data-name="Layer 1" xmlns="http://www.w3.org/2000/svg" viewBox="0 0 130 130">
  <defs>
    <style>
      .cls-1 {
        fill: #2a487c;
      }
    </style>
  </defs>
  <path d="M101.06,89.72h-10.82c-1.29,0-2.58-.77-3.35-1.8l-1.03-1.67c-.64-.77-6.57-7.6-10.17-9.79-1.42-.77-1.93-.64-1.93-.64,0,0-.13,.39-.13,.52v6.82c0,3.61-2.96,6.44-6.44,6.44h-2.58c-.64,0-15.07-.26-26.53-17.38-9.01-13.39-11.98-22.15-13.01-27.17-.26-1.16,.13-2.32,.77-3.22,.77-.9,1.8-1.42,2.96-1.42h9.14c1.67,0,3.09,1.03,3.61,2.7,1.03,2.96,3.61,10.56,6.7,15.45,4.51,7.47,6.31,8.11,6.82,8.11,.39-.64,.26-3.22,.26-4.89v-3.99c0-3.22,.13-7.6-1.16-9.66l-2.58-3.73c-.52-.77-.64-1.8-.13-2.7,.39-.9,1.29-1.42,2.32-1.42h14.68c2.19,0,3.86,1.8,3.86,3.86v18.54c0,.13,.13,.26,.13,.26,0,0,.52,0,1.93-1.29,2.96-2.96,6.7-8.5,10.43-16.1l1.29-2.96c.64-1.42,2.06-2.32,3.61-2.32h9.53c1.29,0,2.45,.64,3.22,1.67s.9,2.45,.39,3.61l-1.03,2.7v.13c-.13,.26-3.61,7.08-7.21,12.1-2.83,3.86-3.99,5.67-3.73,6.31,.26,.39,1.93,2.32,3.61,3.86,3.09,3.22,6.95,7.34,8.37,10.04,.64,1.16,1.29,2.19,1.67,3.09,.64,1.16,.64,2.58-.13,3.86-.77,1.42-1.93,2.06-3.35,2.06h0v.02Zm-27.03-16.48c.9,0,1.93,.39,3.09,1.03,4.25,2.45,10.69,10.04,10.95,10.43l.13,.13,1.03,1.67c.26,.39,.64,.64,1.16,.64h10.69c.64,0,1.03-.39,1.16-.64,.13-.13,.39-.64,0-1.29-.52-.9-1.03-1.93-1.67-3.09-1.29-2.32-5.15-6.44-7.98-9.53s-3.86-4.12-4.12-4.76c-.77-1.93,.39-3.48,4.12-8.63,3.35-4.64,6.57-10.95,6.95-11.72l1.03-2.7c.13-.39,.13-.9-.13-1.16-.26-.39-.64-.52-1.03-.52h-9.53c-.52,0-1.03,.26-1.16,.77l-1.29,3.09c-2.83,5.54-6.95,12.88-10.95,16.87-1.67,1.67-3.22,2.19-4.51,1.8-1.55-.52-1.93-2.19-1.93-2.32v-18.93c0-.77-.64-1.29-1.29-1.29h-14.94l2.58,3.73c1.67,2.7,1.67,7.47,1.55,11.2v3.73c.13,3.61,.13,6.95-2.19,7.47-2.58,.52-5.28-2.19-9.66-9.27-2.96-5.02-5.54-12.1-6.82-15.97-.13-.52-.64-.9-1.29-.9h-9.01c-.39,0-.77,.13-1.03,.52-.26,.26-.26,.64-.26,1.03,.9,4.76,3.86,13.13,12.62,26.27,10.69,15.97,24.21,16.23,24.34,16.23h2.58c2.19,0,3.86-1.8,3.86-3.86v-6.82c0-.13,0-1.93,1.42-2.83,.52-.26,1.03-.39,1.55-.39h-.02Z"/>
  <g>
    <path class="cls-1" d="M65,129.02c-16.86,0-33.36-6.83-45.26-18.74C7.82,98.36,.98,81.85,.98,65S7.82,31.64,19.74,19.74C31.64,7.82,48.15,.98,65,.98s33.35,6.83,45.26,18.74c11.92,11.92,18.75,28.42,18.75,45.27s-6.83,33.35-18.75,45.26c-11.91,11.92-28.4,18.75-45.26,18.75Zm0-126.06c-16.34,0-32.32,6.63-43.87,18.18C9.58,32.68,2.95,48.66,2.95,65s6.63,32.32,18.18,43.88c11.53,11.54,27.53,18.17,43.87,18.17s32.32-6.63,43.87-18.18c11.55-11.55,18.18-27.54,18.18-43.87s-6.63-32.32-18.18-43.87C97.32,9.57,81.33,2.95,65,2.95Z"/>
    <path class="cls-1" d="M65,130c-17.11,0-33.87-6.94-45.96-19.03C6.94,98.87,0,82.11,0,65S6.94,31.13,19.04,19.04C31.13,6.94,47.88,0,65,0s33.86,6.94,45.96,19.03c12.1,12.1,19.04,28.86,19.04,45.97s-6.94,33.86-19.04,45.96c-12.09,12.1-28.84,19.04-45.96,19.04Zm0-1.97c16.6,0,32.84-6.73,44.57-18.46,11.73-11.73,18.46-27.98,18.46-44.57,0,16.58-6.73,32.82-18.47,44.56-11.73,11.74-27.97,18.47-44.56,18.47Zm-.17,0h0Zm-.24,0h0Zm-.02,0h0Zm-.03,0h0Zm-.09,0h0Zm-.02,0h0Zm-.02,0h0Zm-.12,0h0Zm-.02,0h0Zm-.05,0h0ZM1.97,65c0,16.6,6.73,32.84,18.46,44.58,11.54,11.54,27.45,18.23,43.76,18.45-16.32-.21-32.22-6.91-43.76-18.45C8.7,97.83,1.97,81.59,1.97,65ZM65,3.94c-16.07,0-31.81,6.52-43.17,17.89C10.46,33.19,3.94,48.93,3.94,65s6.52,31.81,17.89,43.18c11.36,11.36,27.09,17.88,43.17,17.88s31.81-6.52,43.17-17.89c11.37-11.37,17.89-27.11,17.89-43.17s-6.52-31.81-17.89-43.18C96.81,10.46,81.08,3.94,65,3.94Zm32.57,7.12c4.35,2.61,8.39,5.75,12,9.37,11.74,11.74,18.47,27.98,18.47,44.57,0-16.6-6.73-32.84-18.46-44.58-3.61-3.61-7.65-6.75-12-9.36ZM65,1.97c-16.6,0-32.84,6.73-44.57,18.46C8.7,32.16,1.97,48.4,1.97,65c0-16.59,6.73-32.83,18.47-44.56C32.17,8.7,48.41,1.97,65,1.97Z"/>
  </g>
</svg>