<?xml version="1.0" encoding="UTF-8"?>
<svg id="Layer_1" data-name="Layer 1" xmlns="http://www.w3.org/2000/svg" viewBox="0 0 50 50">
  <defs>
    <style>
      .cls-1 {
        fill: #fff;
      }

      .cls-2 {
        fill: #29a71a;
      }
    </style>
  </defs>
  <circle class="cls-2" cx="25" cy="25" r="25"/>
  <g>
    <path class="cls-1" d="M36.02,13.98c-6.02-6.08-15.84-6.13-21.92-.11-4.79,4.74-5.97,12.04-2.91,18.04l-1.64,7.99c-.03,.16,0,.33,.09,.46,.14,.21,.39,.31,.64,.25l7.83-1.86c7.67,3.81,16.97,.68,20.78-6.98,2.95-5.93,1.8-13.08-2.86-17.79Zm-2.44,19.48c-3.69,3.68-9.32,4.59-13.98,2.27l-1.09-.54-4.8,1.14v-.06s1.01-4.83,1.01-4.83l-.53-1.05c-2.39-4.68-1.48-10.37,2.23-14.09,4.74-4.74,12.42-4.74,17.16,0,.02,.02,.04,.04,.06,.06,4.68,4.75,4.65,12.38-.06,17.1Z"/>
    <path class="cls-1" d="M33.16,29.91c-.59,.93-1.52,2.06-2.68,2.34-2.05,.49-5.18,.02-9.09-3.63l-.05-.04c-3.43-3.18-4.33-5.84-4.11-7.94,.12-1.19,1.11-2.27,1.95-2.98,.47-.4,1.17-.34,1.57,.12,.07,.08,.13,.18,.17,.28l1.26,2.84c.17,.38,.11,.81-.14,1.14l-.64,.83c-.28,.35-.32,.84-.1,1.23,.36,.63,1.22,1.55,2.17,2.41,1.07,.97,2.25,1.85,3,2.15,.41,.17,.88,.07,1.19-.25l.74-.75c.29-.29,.71-.4,1.11-.28l3,.85c.6,.18,.94,.82,.75,1.42-.03,.09-.07,.18-.12,.26h0Z"/>
  </g>
</svg>