<?xml version="1.0" encoding="UTF-8"?>
<svg id="Layer_1" data-name="Layer 1" xmlns="http://www.w3.org/2000/svg" viewBox="0 0 512 512">
  <defs>
    <style>
      .cls-1 {
        fill: #ed8835;
      }
    </style>
  </defs>
  <circle class="cls-1" cx="127.53" cy="154.04" r="88"/>
  <g>
    <path d="M440.86,331.02l-90.53,50.73c3.05-18.24-9.26-35.51-27.5-38.56-1.81-.3-3.64-.46-5.47-.46h-50.81c-9.62,0-19.47-3.1-28.47-8.84-13.11-8.38-31.88-13.19-51.51-13.19-24.67,0-46.86,7.29-59.5,19.47-8.69,8.38-20.87,13.03-34.21,13.03h-28.32v-8.07c0-3.18-2.64-5.82-5.82-5.82H15.51c-3.18,0-5.82,2.64-5.82,5.82v143.2c0,3.18,2.64,5.82,5.82,5.82H58.72c3.18,0,5.82-2.64,5.82-5.82v-6.59c71.6-21.02,158.1-2.02,159.42-1.78l8.38,1.16c47.17,5.74,96.66-4.81,139.25-29.79l103.49-60.66c8.22-4.81,14.12-12.96,16.21-22.34s.08-19.16-5.35-27c-10.13-14.52-29.63-18.98-45.07-10.32ZM52.91,482.52H21.33v-131.57h31.57v131.57Zm426.98-116.6c-1.4,6.28-5.2,11.48-10.71,14.74l-103.49,60.66c-40.42,23.66-87.27,33.75-131.96,28.24-2.64-.31-5.35-.7-7.6-1.01-2.4-.54-38.48-8.53-83.7-8.53-24.59,0-51.9,2.33-77.89,9.54v-104.73h28.24c16.37,0,31.34-5.82,42.28-16.29,10.4-10.01,30.1-16.21,51.43-16.21,17.45,0,33.98,4.11,45.23,11.33,10.94,6.98,22.96,10.71,34.75,10.71h50.81c12.02,0,21.8,9.77,21.8,21.8,0,6.13-2.56,11.64-6.59,15.59-.23,.23-.47,.39-.7,.62-3.88,3.41-8.92,5.51-14.51,5.51h-85.72c-3.18,0-5.82,2.64-5.82,5.82s2.64,5.82,5.82,5.82h85.8c8.53,0,16.37-3.26,22.26-8.53l106.9-59.89c10.24-5.74,23.04-2.79,29.79,6.83,3.65,5.35,4.96,11.71,3.57,18h0Z"/>
    <circle cx="291.99" cy="197.59" r="5.82"/>
    <circle cx="321.4" cy="197.59" r="5.82"/>
    <path d="M501.84,165.62c-.94-2.12-3.04-3.48-5.35-3.49h-18.7c-1.32-7.6-2.95-14.58-4.96-21.18-22.88-73.62-89.99-123.11-167.1-123.11-67.1,0-127.22,37.55-157.01,98.06-1.4,2.87-.23,6.36,2.64,7.76s6.36,.23,7.76-2.64c27.85-56.48,84.01-91.54,146.62-91.54,71.99,0,134.67,46.24,156,114.97,2.25,7.37,4.03,15.36,5.35,24.36,.39,2.87,2.87,4.96,5.74,4.96h10.55l-25.37,27.93-25.29-27.93h6.13c1.71,0,3.34-.78,4.5-2.09s1.55-3.1,1.24-4.81c-1.63-8.69-4.19-17.53-7.68-26.38-21.64-54.07-73.08-89.06-131.18-89.06s-111.94,37.08-132.42,92.39c-1.09,3.03,.39,6.36,3.41,7.45s6.36-.39,7.45-3.41c18.77-50.73,67.57-84.79,121.48-84.79s100.54,32.04,120.4,81.69c2.25,5.74,4.11,11.56,5.51,17.3h-12.02c-2.33,0-4.42,1.32-5.35,3.49s-.54,4.58,1.01,6.28l38.4,42.43c2.06,2.36,5.63,2.6,7.99,.54,.19-.17,.37-.35,.54-.54l38.48-42.43c1.68-1.6,2.18-4.08,1.24-6.21h0Zm-210.62,57.95c-2.25,2.25-2.25,5.97,0,8.22,4.11,4.11,9.62,6.36,15.44,6.36s11.33-2.25,15.44-6.36c2.25-2.25,2.25-5.97,0-8.22s-5.97-2.25-8.22,0c-3.88,3.88-10.55,3.88-14.43,0-2.25-2.33-5.9-2.33-8.22,0Zm147.32-4.27c-3.12-.73-6.26,1.16-7.06,4.27-3.57,14.66-9.77,28.63-18.39,41.43-1.78,2.64-1.09,6.28,1.63,8.07,2.66,1.79,6.26,1.1,8.07-1.55,9.39-13.96,16.14-29.17,20.01-45.15,.78-3.12-1.12-6.28-4.24-7.05,0,0-.02,0-.03,0h0Zm-12.26,85.49c0,3.2,2.58,5.81,5.79,5.82,.01,0,.02,0,.03,0,1.63,0,3.26-.7,4.34-1.94,18.15-20.56,31.42-45.23,38.32-71.37,.84-3.1-1-6.3-4.1-7.13,0,0,0,0-.01,0-3.1-.78-6.28,1.01-7.14,4.11-6.28,23.89-18.39,46.55-34.91,65.63-1.4,1.16-2.33,2.95-2.33,4.89h0ZM114.97,203.64h16.21c.39,6.9,1.24,13.73,2.56,20.48,5.66,31.19,19.94,60.43,41.27,84.56,1.01,1.16,2.48,1.71,3.96,1.71,.78,0,1.63-.16,2.4-.47,2.25-.85,3.72-3.34,3.72-5.74,0-2.09-1.09-3.8-2.79-4.73-19.16-22.19-32.04-48.95-37.16-77.42-1.47-8.07-2.33-16.21-2.56-24.36-.06-3.16-2.66-5.68-5.82-5.66h-8.69l25.29-27.93,25.29,27.93h-8.22c-1.55,0-3.1,.62-4.19,1.78s-1.71,2.72-1.63,4.27c.98,26.22,9.28,51.65,23.97,73.39,1.78,2.64,5.43,3.41,8.07,1.55,2.64-1.78,3.41-5.43,1.63-8.07-9-13.42-15.36-27.93-18.85-43.29-1.4-5.74-2.33-11.79-2.87-18.08h15.2c3.23,.01,5.85-2.59,5.87-5.82,0-1.46-.54-2.88-1.52-3.96l-38.48-42.43c-2.14-2.4-5.82-2.61-8.21-.47-.17,.15-.33,.31-.47,.47l-38.32,42.59c-1.55,1.71-1.94,4.19-1.01,6.28s3.03,3.41,5.35,3.41Z"/>
    <path d="M223.42,269.42c-15.7,4.25-26.6,18.49-26.61,34.75,0,3.18,2.64,5.82,5.82,5.82s5.82-2.64,5.82-5.82c0-11.02,7.45-20.64,18-23.51l42.28-11.4v1.24c0,20.4,16.6,36.93,36.93,37h.08c9.85,0,19.16-3.88,26.14-10.78,6.98-6.98,10.86-16.29,10.86-26.14v-1.24l42.28,11.4c10.63,2.87,18,12.49,18,23.51v24.82c0,3.18,2.64,5.82,5.82,5.82s5.82-2.64,5.82-5.82v-24.82c0-16.29-10.94-30.56-26.61-34.75l-45.3-12.18v-1.71c2.09-1.55,4.11-3.26,6.05-5.04,11.68-11.3,18.27-26.88,18.23-43.13v-24.36c10.32-28.24,10.32-47.32-.08-58.1-10.71-11.09-28.55-8.53-36.54-6.67-6.75-8.07-15.67-13.5-26.61-16.06-16.76-3.96-34.52,.47-47.63,11.79-28.86,24.98-19.32,62.53-9.62,80.29v10.47c0,19.01,8.84,36.46,22.26,48.17v4.34l-45.38,12.1Zm100.23,19.01c-4.81,4.81-11.17,7.45-17.92,7.45-13.98-.04-25.29-11.39-25.29-25.37v-9.7c7.62,4.11,16.09,6.4,24.75,6.67h1.63c8.53,0,16.76-1.78,24.36-5.2v8.22c-.16,6.83-2.72,13.19-7.52,17.92h0Zm-65.55-83.7v-11.95c0-.16-.08-.23-.08-.39,0-.39-.16-.7-.23-1.09s-.23-.78-.39-1.09c-.08-.08-.08-.23-.08-.31-.93-1.71-23.27-41.43,6.36-67.1,10.29-8.79,24.12-12.21,37.31-9.23,9.46,2.25,16.91,7.21,22.26,14.74,1.47,2.09,4.11,2.95,6.59,2.17,5.51-1.78,21.41-4.89,28.63,2.64,4.42,4.58,7.6,15.13-.23,39.49l-.16-.16c-2.56-1.94-4.5-4.58-5.59-7.52-3.1-8.3-9.39-14.89-17.22-18.15-6.9-2.87-14.43-2.79-21.18,.23-4.11,1.86-7.99,4.42-11.71,7.76-11.04,12-29.52,13.29-42.12,2.95-2.49-2.03-6.16-1.69-8.22,.78-2.02,2.48-1.71,6.13,.78,8.22,17.38,14.27,42.9,12.41,57.72-3.72,2.4-2.17,5.28-4.11,8.3-5.43,4.89-2.17,9.15-1.24,11.95-.08,4.81,2.02,8.77,6.21,10.78,11.56,1.94,5.04,5.12,9.39,9.39,12.64l4.27,3.26v22.26c0,13.19-5.2,25.6-14.66,34.83s-21.95,13.89-35.22,13.81c-25.13-.62-47.24-24.51-47.24-51.12h0Z"/>
  </g>
</svg>