<?xml version="1.0" encoding="UTF-8"?>
<svg id="Layer_1" data-name="Layer 1" xmlns="http://www.w3.org/2000/svg" viewBox="0 0 512 512">
  <defs>
    <style>
      .cls-1 {
        fill: #ed8835;
      }
    </style>
  </defs>
  <circle class="cls-1" cx="323.5" cy="203.4" r="88"/>
  <g>
    <path d="M214.25,0C162.28,0,120,42.28,120,94.25v183.5c0,51.97,42.28,94.25,94.25,94.25s94.25-42.28,94.25-94.25V94.25C308.5,42.28,266.22,0,214.25,0Zm79.25,277.75c0,43.7-35.55,79.25-79.25,79.25s-79.25-35.55-79.25-79.25V94.25c0-43.7,35.55-79.25,79.25-79.25s79.25,35.55,79.25,79.25v183.5Z"/>
    <path d="M214.25,40c-29.91,0-54.25,24.34-54.25,54.25V247.75c0,4.14,3.36,7.5,7.5,7.5s7.5-3.36,7.5-7.5V94.25c0-21.64,17.61-39.25,39.25-39.25s39.25,17.61,39.25,39.25v183.5c0,21.64-17.61,39.25-39.25,39.25s-39.25-17.61-39.25-39.25c0-4.14-3.36-7.5-7.5-7.5-4.14,0-7.5,3.36-7.5,7.5h0c0,29.92,24.34,54.25,54.25,54.25s54.25-24.34,54.25-54.25V94.25c0-29.91-24.34-54.25-54.25-54.25ZM417.75,0C365.78,0,323.5,42.28,323.5,94.25v183.5c0,51.97,42.28,94.25,94.25,94.25s94.25-42.28,94.25-94.25V94.25C512,42.28,469.72,0,417.75,0Zm79.25,277.75c0,43.7-35.55,79.25-79.25,79.25s-79.25-35.55-79.25-79.25V94.25c0-43.7,35.55-79.25,79.25-79.25s79.25,35.55,79.25,79.25v183.5Z"/>
    <path d="M417.75,40c-29.91,0-54.25,24.34-54.25,54.25V247.75c0,4.14,3.36,7.5,7.5,7.5s7.5-3.36,7.5-7.5V94.25c0-21.64,17.61-39.25,39.25-39.25s39.25,17.61,39.25,39.25v183.5c0,21.64-17.61,39.25-39.25,39.25s-39.25-17.61-39.25-39.25c0-4.14-3.36-7.5-7.5-7.5-4.14,0-7.5,3.36-7.5,7.5h0c0,29.92,24.34,54.25,54.25,54.25s54.25-24.34,54.25-54.25V94.25c0-29.91-24.34-54.25-54.25-54.25ZM86.2,1.41C83.4,.48,80.46,0,77.51,0,68.9,0,60.67,4.11,55.5,11L5.5,77.67C1.1,83.55-.76,90.79,.28,98.06c1.04,7.27,4.85,13.7,10.72,18.11,4.8,3.6,10.5,5.5,16.48,5.5,8.62,0,16.85-4.11,22.02-11l.5-.67v234.5c0,15.16,12.34,27.5,27.5,27.5s27.5-12.34,27.5-27.5V27.5c.01-11.84-7.57-22.35-18.8-26.09Zm3.8,343.09c0,6.89-5.61,12.5-12.5,12.5s-12.5-5.61-12.5-12.5V87.5c0-4.14-3.35-7.5-7.49-7.5h0c-2.36,0-4.58,1.11-6,3l-14,18.67c-2.38,3.18-6.03,5-10.02,5-2.72,0-5.3-.86-7.48-2.5-2.66-1.98-4.41-4.95-4.87-8.23-.48-3.28,.38-6.62,2.37-9.27L67.5,20c2.37-3.14,6.07-4.99,10-5,1.34,0,2.67,.22,3.95,.64,5.11,1.7,8.55,6.48,8.55,11.86,0,0,0,317,0,317Zm394.5,42.5H77.5c-15.16,0-27.5,12.34-27.5,27.5s12.34,27.5,27.5,27.5H484.5c15.16,0,27.5-12.34,27.5-27.5s-12.34-27.5-27.5-27.5h0Zm0,40H77.5c-6.89,0-12.5-5.61-12.5-12.5s5.61-12.5,12.5-12.5H484.5c6.89,0,12.5,5.61,12.5,12.5s-5.61,12.5-12.5,12.5Zm0,30H77.5c-15.16,0-27.5,12.34-27.5,27.5s12.34,27.5,27.5,27.5H484.5c15.16,0,27.5-12.34,27.5-27.5s-12.34-27.5-27.5-27.5h0Zm0,40H77.5c-6.89,0-12.5-5.61-12.5-12.5s5.61-12.5,12.5-12.5H484.5c6.89,0,12.5,5.61,12.5,12.5s-5.61,12.5-12.5,12.5Z"/>
  </g>
</svg>