<?xml version="1.0" encoding="UTF-8"?>
<svg id="Layer_1" data-name="Layer 1" xmlns="http://www.w3.org/2000/svg" viewBox="0 0 512 512">
  <defs>
    <style>
      .cls-1 {
        fill: #ed8835;
      }
    </style>
  </defs>
  <circle class="cls-1" cx="316.2" cy="379.16" r="88"/>
  <g>
    <path d="M511.21,455.6c-1.95-13.8-51.19-331.44-56.5-370.66-2.66-19.77-19.64-34.89-39.94-34.89h-48.49V26.95c0-10.77-8.76-19.53-19.53-19.53h-4.01c-10.77,0-19.53,8.76-19.53,19.53v23.1h-81.12V26.95c0-10.77-8.76-19.53-19.53-19.53h-4.01c-10.77,0-19.53,8.76-19.53,19.53v23.1H117.91V26.95c0-10.77-8.76-19.53-19.53-19.53h-4.01c-10.77,0-19.53,8.76-19.53,19.53v23.1H40.31C18.08,50.05,0,68.13,0,90.36V464.82C0,487.05,18.08,505.13,40.31,505.13H472.23c16.8,0,32-10.58,37.8-26.28,.79-2.09,3.21-9.93,1.19-23.24h0ZM338.24,26.95c0-2.49,2.02-4.5,4.51-4.51h4.01c2.49,0,4.5,2.02,4.51,4.51V93.71c0,2.49-2.02,4.5-4.51,4.51h-4.01c-2.49,0-4.5-2.02-4.51-4.51V26.95Zm-10.49,79.26c.35,.42,.71,.81,1.09,1.19,.06,.06,.12,.13,.19,.19,.39,.38,.79,.75,1.2,1.09l.23,.19c.42,.34,.86,.67,1.31,.98,.07,.05,.14,.09,.21,.14,.47,.31,.96,.61,1.46,.89,.03,.01,.05,.03,.08,.04,.5,.27,1.01,.51,1.53,.74l.17,.07c.52,.22,1.05,.41,1.59,.58,.09,.03,.18,.06,.27,.09,1.18,.36,2.39,.6,3.61,.74,.08,0,.15,.01,.23,.02,.61,.06,1.22,.09,1.84,.09h4.01c.62,0,1.23-.04,1.84-.09,.08,0,.15-.01,.23-.02,.67-.07,1.33-.18,1.99-.32,.55-.12,1.09-.25,1.62-.42l.27-.09c.54-.17,1.07-.36,1.59-.58l.17-.07c.52-.22,1.03-.47,1.53-.74,.03-.01,.05-.03,.08-.04,.5-.27,.98-.57,1.46-.89,.07-.05,.14-.09,.21-.14,.45-.31,.89-.64,1.31-.98l.23-.19c.42-.35,.82-.71,1.2-1.09,.06-.06,.12-.13,.19-.19,.38-.38,.74-.78,1.09-1.19,.01,.27,.02,.54,.02,.81,0,9.39-7.64,17.03-17.03,17.03s-17.02-7.64-17.02-17.03c0-.27,.01-.54,.02-.81ZM214.05,26.95c0-2.49,2.02-4.5,4.51-4.51h4.01c2.49,0,4.5,2.02,4.51,4.51V93.71c0,2.49-2.02,4.5-4.51,4.51h-4.01c-2.49,0-4.5-2.02-4.51-4.51V26.95Zm-10.5,79.26c.35,.42,.71,.81,1.09,1.19,.06,.06,.12,.13,.19,.19,.38,.38,.79,.75,1.2,1.09l.23,.19c.42,.34,.86,.67,1.31,.98,.07,.05,.14,.09,.21,.14,.47,.31,.96,.61,1.46,.89,.03,.01,.05,.03,.08,.04,.5,.27,1.01,.51,1.53,.74l.17,.07c.52,.22,1.05,.41,1.59,.58,.09,.03,.18,.06,.27,.09,1.18,.36,2.39,.6,3.61,.74,.08,0,.15,.01,.23,.02,.61,.06,1.22,.09,1.84,.09h4.01c.62,0,1.24-.04,1.84-.09,.08,0,.15-.01,.23-.02,.67-.07,1.33-.18,1.99-.32,.55-.12,1.09-.25,1.62-.42l.27-.09c.54-.17,1.07-.36,1.59-.58l.17-.07c.52-.22,1.03-.47,1.53-.74,.03-.01,.05-.03,.08-.04,.5-.27,.98-.57,1.46-.89,.07-.05,.14-.09,.21-.14,.45-.31,.88-.64,1.31-.98l.23-.19c.42-.35,.82-.71,1.2-1.09,.06-.06,.12-.13,.19-.19,.38-.38,.74-.78,1.09-1.19,.01,.27,.02,.54,.02,.81,0,9.39-7.64,17.03-17.03,17.03s-17.03-7.64-17.03-17.03c0-.27,.01-.54,.02-.81h0ZM89.86,26.95c0-2.49,2.02-4.5,4.51-4.51h4.01c2.49,0,4.5,2.02,4.51,4.51V93.71c0,2.49-2.02,4.5-4.51,4.51h-4.01c-2.49,0-4.5-2.02-4.51-4.51,0,0,0-66.77,0-66.77Zm-4.81,83.92s.05,.03,.08,.04c.5,.27,1.01,.51,1.53,.74l.17,.07c.52,.22,1.05,.41,1.59,.58,.09,.03,.18,.06,.27,.09,1.18,.36,2.39,.6,3.61,.74,.08,0,.15,.01,.23,.02,.61,.06,1.22,.09,1.84,.09h4.01c.62,0,1.24-.04,1.84-.09,.08,0,.15-.01,.23-.02,.67-.07,1.33-.18,1.99-.32,.55-.12,1.09-.25,1.62-.42l.27-.09c.54-.17,1.07-.36,1.59-.58l.17-.07c.52-.22,1.03-.47,1.53-.74,.03-.01,.05-.03,.08-.04,.5-.27,.98-.57,1.46-.89,.07-.05,.14-.09,.21-.14,.45-.31,.89-.64,1.31-.98l.23-.19c.42-.35,.82-.71,1.2-1.09,.06-.06,.12-.13,.19-.19,.38-.39,.74-.78,1.09-1.19,.01,.27,.02,.54,.02,.81,0,9.39-7.64,17.03-17.03,17.03s-17.48-8.17-17-17.84c1.59,1.89,3.52,3.48,5.69,4.67h0ZM15.02,90.36c0-13.94,11.35-25.29,25.29-25.29h34.53v18.22c-21.62,19.65-7.68,55.77,21.53,55.77,17.67,0,32.05-14.38,32.05-32.05,0-9.08-3.87-17.68-10.52-23.72v-18.22h81.12v18.22c-6.64,6.04-10.52,14.64-10.52,23.72,0,17.67,14.38,32.05,32.05,32.05s32.05-14.38,32.05-32.05c0-9.08-3.87-17.68-10.52-23.72v-18.22h81.12v18.22c-6.64,6.04-10.52,14.64-10.52,23.72,0,17.67,14.38,32.05,32.05,32.05s32.05-14.38,32.05-32.05c0-9.08-3.87-17.68-10.52-23.72v-18.22h48.49c13.95,0,25.29,11.35,25.29,25.29v76.75H15.02s0-76.75,0-76.75ZM495.96,473.59c-3.65,9.88-13.19,16.52-23.73,16.52h-26.09c5.59-6.92,8.95-15.72,8.95-25.29v-99.48c0-4.15-3.36-7.51-7.51-7.51s-7.51,3.36-7.51,7.51v99.48c0,13.95-11.35,25.29-25.29,25.29H40.31c-13.94,0-25.29-11.35-25.29-25.29V210.17H203.08c4.15,0,7.51-3.36,7.51-7.51s-3.36-7.51-7.51-7.51H15.02v-13.02H440.06v13.02H238.04c-4.15,0-7.51,3.36-7.51,7.51s3.36,7.51,7.51,7.51h202.03v120.11c0,4.15,3.36,7.51,7.51,7.51s7.51-3.36,7.51-7.51V188.84l41.24,268.81,.02,.11c1.59,10.36-.35,15.71-.39,15.82Z"/>
    <path d="M171.19,248.68h-24.73c-4.15,0-7.51,3.37-7.5,7.52,0,4.14,3.36,7.5,7.5,7.5h24.73c4.15,0,7.51-3.36,7.51-7.51h0c0-4.15-3.36-7.51-7.51-7.51h0Zm68.75,0h-24.73c-4.15,0-7.51,3.37-7.5,7.52,0,4.14,3.36,7.5,7.5,7.5h24.73c4.15,0,7.51-3.36,7.51-7.51h0c0-4.15-3.36-7.51-7.51-7.51h0Zm68.75,0h-24.73c-4.15,0-7.51,3.37-7.5,7.52,0,4.14,3.36,7.5,7.5,7.5h24.73c4.15,0,7.51-3.36,7.51-7.51s-3.36-7.51-7.51-7.51h0Zm68.75,0h-24.73c-4.15,0-7.51,3.37-7.5,7.52,0,4.14,3.36,7.5,7.5,7.5h24.73c4.15,0,7.51-3.36,7.51-7.51h0c0-4.15-3.36-7.51-7.51-7.51h0Zm-274.99,60.52h-24.73c-4.15,0-7.51,3.36-7.51,7.51s3.36,7.51,7.51,7.51h24.73c4.15,0,7.51-3.36,7.51-7.51h0c0-4.15-3.36-7.51-7.51-7.51h0Zm68.75,0h-24.73c-4.15,0-7.51,3.36-7.51,7.51s3.36,7.51,7.51,7.51h24.73c4.15,0,7.51-3.36,7.51-7.51h0c0-4.15-3.36-7.51-7.51-7.51h0Zm68.75,0h-24.73c-4.15,0-7.51,3.36-7.51,7.51s3.36,7.51,7.51,7.51h24.73c4.15,0,7.51-3.36,7.51-7.51h0c0-4.15-3.36-7.51-7.51-7.51h0Zm68.75,0h-24.73c-4.15,0-7.51,3.36-7.51,7.51s3.36,7.51,7.51,7.51h24.73c4.15,0,7.51-3.36,7.51-7.51s-3.36-7.51-7.51-7.51Zm68.75,0h-24.73c-4.15,0-7.51,3.36-7.51,7.51s3.36,7.51,7.51,7.51h24.73c4.15,0,7.51-3.36,7.51-7.51h0c0-4.15-3.36-7.51-7.51-7.51h0Zm-274.99,60.52h-24.73c-4.15,0-7.51,3.36-7.51,7.51s3.36,7.51,7.51,7.51h24.73c4.15,0,7.51-3.36,7.51-7.51h0c0-4.15-3.36-7.51-7.51-7.51h0Zm68.75,0h-24.73c-4.15,0-7.51,3.36-7.51,7.51s3.36,7.51,7.51,7.51h24.73c4.15,0,7.51-3.36,7.51-7.51h0c0-4.15-3.36-7.51-7.51-7.51h0Zm68.75,0h-24.73c-4.15,0-7.51,3.36-7.51,7.51s3.36,7.51,7.51,7.51h24.73c4.15,0,7.51-3.36,7.51-7.51h0c0-4.15-3.36-7.51-7.51-7.51h0Zm68.75,0h-24.73c-4.15,0-7.51,3.36-7.51,7.51s3.36,7.51,7.51,7.51h24.73c4.15,0,7.51-3.36,7.51-7.51s-3.36-7.51-7.51-7.51Zm68.75,0h-24.73c-4.15,0-7.51,3.36-7.51,7.51s3.36,7.51,7.51,7.51h24.73c4.15,0,7.51-3.36,7.51-7.51h0c0-4.15-3.36-7.51-7.51-7.51h0Zm-274.99,60.52h-24.73c-4.15,0-7.51,3.36-7.51,7.51s3.36,7.51,7.51,7.51h24.73c4.15,0,7.51-3.36,7.51-7.51h0c0-4.15-3.36-7.51-7.51-7.51h0Zm68.75,0h-24.73c-4.15,0-7.51,3.36-7.51,7.51s3.36,7.51,7.51,7.51h24.73c4.15,0,7.51-3.36,7.51-7.51h0c0-4.15-3.36-7.51-7.51-7.51h0Zm68.75,0h-24.73c-4.15,0-7.51,3.36-7.51,7.51s3.36,7.51,7.51,7.51h24.73c4.15,0,7.51-3.36,7.51-7.51h0c0-4.15-3.36-7.51-7.51-7.51h0Zm68.75,0h-24.73c-4.15,0-7.51,3.36-7.51,7.51s3.36,7.51,7.51,7.51h24.73c4.15,0,7.51-3.36,7.51-7.51s-3.36-7.51-7.51-7.51Z"/>
  </g>
</svg>