<?xml version="1.0" encoding="UTF-8"?>
<svg id="Layer_1" data-name="Layer 1" xmlns="http://www.w3.org/2000/svg" xmlns:xlink="http://www.w3.org/1999/xlink" viewBox="0 0 512 512">
  <defs>
    <style>
      .cls-1, .cls-2 {
        fill: none;
      }

      .cls-3 {
        clip-path: url(#clippath);
      }

      .cls-4 {
        fill: #ed8835;
      }

      .cls-2 {
        stroke: #000;
        stroke-linecap: round;
        stroke-linejoin: round;
        stroke-width: 15px;
      }
    </style>
    <clipPath id="clippath">
      <rect class="cls-1" width="512" height="512"/>
    </clipPath>
  </defs>
  <circle class="cls-4" cx="256" cy="256.27" r="88"/>
  <g class="cls-3">
    <g>
      <path class="cls-2" d="M110.77,371.24H15.05c-4.09,0-7.4-3.31-7.4-7.4,0,0,0,0,0,0V148.16c0-4.09,3.31-7.4,7.4-7.4H341.24"/>
      <path class="cls-2" d="M249.48,371.24h247.46c4.09,0,7.4-3.31,7.4-7.4V148.16c0-4.09-3.31-7.4-7.4-7.4h-95.71"/>
      <path class="cls-2" d="M170.14,371.24h47.38"/>
      <path class="cls-2" d="M200.76,341.24h237.34c0-20.02,16.23-36.24,36.24-36.24v-97.98c-20.02,0-36.24-16.23-36.24-36.24h-66.87"/>
      <path class="cls-2" d="M311.24,170.76H73.9c0,20.02-16.23,36.24-36.24,36.24v97.98c20.02,0,36.24,16.23,36.24,36.24h66.87"/>
      <path class="cls-2" d="M328.63,211.37c7.99,12.98,12.6,28.27,12.6,44.63,0,47.07-38.16,85.24-85.24,85.24-16.36,0-31.65-4.61-44.63-12.61"/>
      <path class="cls-2" d="M183.37,300.63c-7.99-12.98-12.6-28.27-12.6-44.63,0-47.08,38.16-85.24,85.23-85.24,16.36,0,31.65,4.61,44.63,12.6"/>
      <path class="cls-2" d="M36.69,140.26C78.27,61.64,160.88,8.07,256,8.07s178.08,53.8,219.57,132.69"/>
      <path class="cls-2" d="M475.57,371.24c-41.49,78.89-124.25,132.69-219.57,132.69s-177.67-53.53-219.26-132.1"/>
      <path class="cls-2" d="M238.06,245.95L381.01,102.99c3.92-3.92,3.49-10.44-.96-13.76-34.99-26.1-78.44-41.46-125.43-41.15-70.85,.46-133.53,36.75-170.76,91.57"/>
      <path class="cls-2" d="M83.31,371.69c1.91,2.83,3.88,5.62,5.92,8.36,3.32,4.45,9.83,4.89,13.75,.96l112.47-112.47"/>
      <path class="cls-2" d="M428.99,140.76c-2-2.99-4.08-5.93-6.23-8.81-3.32-4.45-9.83-4.89-13.75-.96L130.99,409.01c-3.92,3.92-3.49,10.44,.96,13.76,34.99,26.1,78.44,41.46,125.43,41.15,34.28-.22,66.63-8.85,95.13-23.89"/>
      <path class="cls-2" d="M379.65,422.91c19.2-14.28,35.89-31.76,49.23-51.67"/>
    </g>
  </g>
</svg>