<?xml version="1.0" encoding="UTF-8"?>
<svg id="Layer_1" data-name="Layer 1" xmlns="http://www.w3.org/2000/svg" viewBox="0 0 512 512">
  <defs>
    <style>
      .cls-1 {
        fill: #ed8835;
      }

      .cls-2 {
        stroke-miterlimit: 10;
        stroke-width: 5px;
      }

      .cls-2, .cls-3 {
        stroke: #000;
      }

      .cls-3 {
        fill: none;
        stroke-linecap: round;
        stroke-linejoin: round;
        stroke-width: 15px;
      }
    </style>
  </defs>
  <circle class="cls-1" cx="167.57" cy="138.82" r="91.62"/>
  <g>
    <path class="cls-3" d="M126.62,14.51c13.28-4.54,27.51-7.01,42.31-7.01,63.01,0,115.8,44.71,128.52,104.17m-164.63,154.49c-54.97-15.78-95.31-66.65-95.31-126.8,0-45.92,23.52-86.44,59.11-110.06"/>
    <path class="cls-3" d="M147.71,235.57c-43.99-9.76-76.99-49.19-76.99-96.21,0-54.33,44.06-98.53,98.2-98.53,44.57,0,82.3,29.95,94.26,70.84"/>
    <path class="cls-3" d="M474.5,360.33V175.08c0-1.29-.51-2.53-1.43-3.45l-58.56-58.54c-.91-.91-2.15-1.43-3.45-1.43H228.72c-2.64,0-4.77,2.14-4.77,4.77v109.18m183.59,217.5h62.09c2.69,0,4.88-2.18,4.88-4.88v-46.92"/>
    <path class="cls-3" d="M413.08,114.03v54.17c0,2.69,2.18,4.88,4.88,4.88h54.19c.87,0,1.3-1.05,.69-1.66l-58.09-58.07c-.61-.61-1.67-.18-1.67,.69Zm-57.23,231.02h23.01c12.89,0,23.33-10.45,23.33-23.33v-.06c0-7.16-5.8-12.96-12.96-12.96h-20.42c-7.16,0-12.96,5.8-12.96,12.96v23.39h0Zm-220.69,112.89v28.49c0,9.98-8.09,18.07-18.07,18.07h-10.3c-9.98,0-18.07-8.09-18.07-18.07v-28.49m302.83,0v28.49c0,9.98-8.09,18.07-18.07,18.07h-10.3c-9.98,0-18.07-8.09-18.07-18.07v-28.49m46.45-34.73v-19.71c0-2.93-.14-5.86-.43-8.77-2.12-21.6-15.73-40.36-35.26-49.68H119.78l-1.02,.62c-17.14,10.46-28.42,28.52-29.83,48.59-.15,2.1-.22,4.2-.22,6.3v22.75"/>
    <path class="cls-3" d="M387.91,457.94H92.34c-9.55,0-17.29-7.74-17.29-17.29v-.06c0-9.55,7.74-17.29,17.29-17.29H387.91c9.55,0,17.29,7.74,17.29,17.29v.06c0,9.55-7.74,17.29-17.29,17.29Zm-44.31-199.94c-4.02-18.37-20.34-32.37-39.26-32.37H173.48c-19.66,0-35.37,14.86-39.51,33.56h209.89l-.26-1.19Zm12.26,87.05l-11.99-85.86H133.97l-14.18,85.86h236.07Zm-236.07,0h-23.01c-12.89,0-23.33-10.45-23.33-23.33v-.06c0-7.16,5.8-12.96,12.96-12.96h20.42c7.16,0,12.96,5.8,12.96,12.96v23.39h0Zm63.99,78.16h-41.27c-8.77,0-15.88-7.11-15.88-15.88v-.05c0-8.77,7.11-15.88,15.88-15.88h27.86c12.47,0,22.58,10.11,22.58,22.58v.05c0,5.07-4.11,9.18-9.18,9.18h0Zm112.7,0h41.27c8.77,0,15.88-7.11,15.88-15.88v-.05c0-8.77-7.11-15.88-15.88-15.88h-27.86c-12.47,0-22.58,10.11-22.58,22.58v.05c0,5.07,4.11,9.18,9.18,9.18h0Zm-23.57-250.14h95.41m56.54,38.56h-65m65,33.56h-45.63m45.63,33.22h-34.63"/>
  </g>
  <path class="cls-2" d="M133.33,184.97c-.94-.98-1.41-2.28-1.41-3.9V100.68c0-1.54,.49-2.77,1.47-3.71,.98-.94,2.28-1.41,3.9-1.41h30.34c9.47,0,16.83,2.3,22.08,6.91,5.25,4.61,7.87,11.14,7.87,19.58s-2.65,15.02-7.94,19.71c-5.29,4.69-12.63,7.04-22.02,7.04h-25.22v32.26c0,1.62-.47,2.92-1.41,3.9-.94,.98-2.22,1.47-3.84,1.47s-2.9-.49-3.84-1.47Zm53.89-62.91c0-11.86-6.87-17.79-20.61-17.79h-24.19v35.84h24.19c13.74,0,20.61-6.02,20.61-18.05Z"/>
  <line class="cls-3" x1="155.64" y1="168.11" x2="119.97" y2="168.11"/>
</svg>