<?xml version="1.0" encoding="UTF-8"?>
<svg id="Layer_1" data-name="Layer 1" xmlns="http://www.w3.org/2000/svg" viewBox="0 0 512 512">
  <defs>
    <style>
      .cls-1, .cls-2 {
        fill: none;
      }

      .cls-3 {
        fill: #ed8835;
      }

      .cls-2 {
        stroke: #000;
        stroke-linecap: round;
        stroke-linejoin: round;
        stroke-width: 15px;
      }
    </style>
  </defs>
  <circle class="cls-3" cx="290.81" cy="200.84" r="91.62"/>
  <g>
    <path class="cls-1" d="M250.37,326.89c.17-.17,.35-.33,.52-.49-20.35-6.54-38.55-17.91-53.24-32.76v85.53s52.72-52.27,52.72-52.27h0Z"/>
    <path class="cls-2" d="M311.16,366.15c4.39-11.28,2.96-24.28-4.28-34.45-1.22-1.72-2.59-3.33-4.08-4.82-14.31-14.18-37.39-14.34-51.9-.49-.17,.17-.35,.32-.52,.49l-52.72,52.27v-85.53"/>
    <path class="cls-2" d="M123.5,112.14V379.16s-52.72-52.28-52.72-52.28c-14.13-14.01-38.21-14.1-52.42,0-14.48,14.35-14.48,37.62,0,51.98l116,115.01c14.28,14.17,38.15,14.17,52.43,.01l35.5-35.19m-24.65-349.67V44.25c0-19.87-16.99-36.75-37.07-36.76-20.47,0-37.07,16.45-37.07,36.75v38.08"/>
    <path class="cls-2" d="M306.87,331.71c64.98-7.86,115.5-63.33,115.5-130.38,0-72.42-58.93-131.34-131.37-131.34-36.48,0-69.53,14.95-93.36,39.04-23.49,23.74-38.01,56.36-38.01,92.31s14.53,68.57,38.01,92.31c14.69,14.85,32.9,26.22,53.24,32.76m63.78-180.87l-45.86,109.25"/>
    <ellipse class="cls-2" cx="250.59" cy="163.98" rx="20.26" ry="23.54"/>
    <ellipse class="cls-2" cx="331.41" cy="238.67" rx="20.26" ry="23.54"/>
    <path class="cls-2" d="M472.91,458.69H227.16c-2.49,0-4.51-2.02-4.51-4.51v-36.79c0-2.49,2.02-4.51,4.51-4.51h245.75c2.49,0,4.51,2.02,4.51,4.51v36.79c0,2.49-2.02,4.51-4.51,4.51h0Z"/>
    <path class="cls-2" d="M327.37,412.88h45.32v45.81h-45.32v-45.81Zm172.62,0H254.24c-2.49,0-4.51-2.02-4.51-4.51v-36.79c0-2.49,2.02-4.51,4.51-4.51h245.75c2.49,0,4.51,2.02,4.51,4.51v36.79c0,2.49-2.02,4.51-4.51,4.51h0Z"/>
    <path class="cls-2" d="M354.45,367.07h45.32v45.81h-45.32v-45.81Zm111.5,137.43h34.04c2.49,0,4.51-2.02,4.51-4.51v-36.79c0-2.49-2.02-4.51-4.51-4.51H254.24c-2.49,0-4.51,2.02-4.51,4.51v36.79c0,2.49,2.02,4.51,4.51,4.51h181.77"/>
    <path class="cls-2" d="M354.45,458.69h45.32v45.81h-45.32v-45.81Z"/>
  </g>
</svg>