<?xml version="1.0" encoding="UTF-8"?>
<svg id="Layer_1" data-name="Layer 1" xmlns="http://www.w3.org/2000/svg" xmlns:xlink="http://www.w3.org/1999/xlink" viewBox="0 0 204.11 50.77">
  <defs>
    <linearGradient id="linear-gradient" x1="-554.11" y1="-463.16" x2="-553.99" y2="-463.27" gradientTransform="translate(220210.95 184116.98) scale(397.42)" gradientUnits="userSpaceOnUse">
      <stop offset="0" stop-color="#fc0"/>
      <stop offset="1" stop-color="#ffe992"/>
    </linearGradient>
  </defs>
  <g id="Navi">
    <g id="Color_icon_color" data-name="Color/icon_color">
      <g id="navi">
        <g id="Group-2">
          <g id="Group">
            <polygon id="Fill-1" points="45.69 4.66 0 23.22 19.99 30.36 27.13 50.34 45.69 4.66" style="fill: url(#linear-gradient);"/>
            <polygon id="Fill-3" points="45.69 4.66 19.28 31.08 27.13 50.34 45.69 4.66" style="fill: #fc0;"/>
            <polygon id="Fill-4" points="18.57 31.79 27.13 50.34 24.27 26.08 0 23.22 18.57 31.79" style="fill: #eca704;"/>
          </g>
        </g>
      </g>
    </g>
  </g>
  <g>
    <g>
      <path d="M72.85,11.03v6.85h1.92V0h-2.87c-2.83,0-5.21,1.88-5.21,5.62,0,2.67,1.05,4.13,2.63,4.93l-3.35,7.32h2.23l3.04-6.85h1.6Zm0-1.6h-1.03c-1.67,0-3.05-.92-3.05-3.8s1.51-4,3.05-4h1.03v7.8Z" style="fill: red;"/>
      <path d="M94.07,16.28h-.99V5.28h-5.85v1.07c0,3.35-.13,7.25-1.28,9.93h-.77v4.07h1.75v-2.48h5.4v2.48h1.74v-4.07Zm8.48,.75l-.45-1.5c-.5,.35-1.37,.84-2.48,.84-1.55,0-2.35-1.5-2.35-4.35h5.25v-1.08c0-4.28-1.37-5.85-3.48-5.85-2.67,0-3.8,2.95-3.8,7s1.6,5.96,4.2,5.96c1.25,0,2.3-.4,3.1-1.03Zm-20.43-11.75v5.35h-2.9V5.28h-1.95v12.6h1.95v-5.65h2.9v5.65h1.92V5.28h-1.92Zm27.68,12.6h2.13l-3.57-6.67,3.12-5.92h-1.98l-3.02,5.82V5.28h-1.95v12.6h1.95v-6.27l3.32,6.27Zm6.71,.18c1.15,0,1.95-.38,2.63-.95l-.45-1.45c-.45,.4-1.18,.78-2.13,.78-1.57,0-2.33-1.81-2.33-4.95s1-4.75,2.41-4.75c.8,0,1.55,.43,2.07,.88l.28-1.85c-.55-.35-1.2-.65-2.33-.65-2.95,0-4.47,2.52-4.47,6.48,0,4.3,1.63,6.48,4.32,6.48Zm-25.35-1.77h-3.35c1.05-2.68,1.18-6.56,1.18-9.21v-.22h2.18v9.43Zm7.9-9.58c1.13,0,1.48,1.57,1.48,3.72h-3.23c.13-2.25,.55-3.72,1.75-3.72Zm32.89,11.17h1.25V0h-1.25V8.25h-5.55V0h-1.25V17.88h1.25V9.28h5.55v8.6Zm6.55-.69c-1.2,0-1.97-1.03-1.97-2.8,0-2.2,1-3.16,3.08-3.16h1.35v3.48c-.45,1.35-1.28,2.48-2.45,2.48Zm2.8,.69h1.08c-.15-.47-.28-1.44-.28-2.32v-6.88c0-2.5-1.18-3.65-3.25-3.65-1.43,0-2.48,.62-2.97,1.28l.32,1.12c.6-.88,1.57-1.37,2.65-1.37,1.37,0,2.1,.83,2.1,2.75v1.57h-1.37c-2.73,0-4.2,1.4-4.2,4.1,0,2.3,1.18,3.65,2.88,3.65,1.25,0,2.15-.75,2.75-1.95,.08,.9,.21,1.37,.3,1.7Zm6.21,0c2.37,0,3.94-1.14,3.94-3.62,0-1.53-.72-2.58-2.35-3.05,1.23-.55,1.78-1.6,1.78-2.87,0-2-1.21-3.05-3.43-3.05h-2.65v12.6h2.71Zm-.1-11.67c1.45,0,2.35,.58,2.35,2.18,0,1.75-.98,2.5-2.35,2.5h-1.45V6.2h1.45Zm.07,5.55c1.83,0,2.8,.75,2.8,2.57,0,1.96-1.14,2.65-2.77,2.65h-1.55v-5.22h1.52Zm11.86,6.12h1.13V5.28h-1.03l-4.1,8.85c-.25,.55-.5,1.1-.68,1.67h-.07c.05-.54,.09-1.1,.09-1.77V5.28h-1.1v12.6h1l4.1-8.87c.27-.55,.5-1.07,.67-1.63h.08c-.06,.53-.1,1.07-.1,1.73v8.77Zm9.28-11.63v-.97h-5.32v12.6h1.15V6.25h4.17Zm4.13,10.93c-1.2,0-1.97-1.03-1.97-2.8,0-2.2,.99-3.16,3.08-3.16h1.35v3.48c-.45,1.35-1.28,2.48-2.45,2.48Zm2.8,.69h1.07c-.15-.47-.27-1.44-.27-2.32v-6.88c0-2.5-1.18-3.65-3.25-3.65-1.43,0-2.48,.62-2.98,1.28l.32,1.12c.61-.88,1.58-1.37,2.66-1.37,1.37,0,2.1,.83,2.1,2.75v1.57h-1.38c-2.72,0-4.2,1.4-4.2,4.1,0,2.3,1.18,3.65,2.87,3.65,1.25,0,2.15-.75,2.75-1.95,.08,.9,.2,1.37,.3,1.7Zm9.36-11.63v-.97h-7v.97h2.93v11.63h1.18V6.25h2.9Zm4.6,11.88c2.18,0,3.85-2.45,3.85-6.63s-1.67-6.48-3.85-6.48-3.85,2.43-3.85,6.63,1.67,6.48,3.85,6.48Zm0-.95c-1.48,0-2.67-1.68-2.67-5.6s1.2-5.58,2.67-5.58,2.67,1.63,2.67,5.58-1.2,5.6-2.67,5.6Zm9.51,0c-1.13,0-1.83-.5-2.33-1.53v-7.05c.55-1.35,1.5-2.55,2.63-2.55,1.45,0,2.35,1.95,2.35,5.25,0,3.98-1.05,5.88-2.65,5.88Zm-.08,.92c2.35,0,3.9-2.27,3.9-6.9,0-3.65-1.23-6.18-3.33-6.18-1.4,0-2.33,1.13-2.88,2.33l-.09-2.07h-1.03V21.78h1.18v-4.77c.47,.62,1.3,1.1,2.25,1.1Z"/>
    </g>
    <rect x="67.27" y="26.21" width="136.84" height="24.56" rx="12.28" ry="12.28" style="fill: #27272e;"/>
    <g>
      <path d="M112.57,32.78v11.2h-1.49v-9.8h-5.15v9.8h-1.49v-11.2h8.13Z" style="fill: #fff;"/>
      <path d="M118.58,44.2c-1.17,0-2.18-.4-2.99-1.22s-1.22-1.81-1.22-2.99,.4-2.18,1.22-2.99c.82-.82,1.82-1.22,2.99-1.22s2.18,.4,2.99,1.22c.82,.82,1.23,1.81,1.23,2.99s-.42,2.18-1.23,2.99-1.82,1.22-2.99,1.22Zm2.02-2.18c.54-.54,.82-1.22,.82-2.03s-.27-1.49-.82-2.03c-.54-.54-1.22-.82-2.02-.82s-1.46,.27-2,.82-.82,1.22-.82,2.03,.27,1.49,.82,2.03,1.22,.82,2,.82,1.47-.27,2.02-.82Z" style="fill: #fff;"/>
      <path d="M125.43,40.63c.27,1.42,1.38,2.26,2.9,2.26,1.06,0,1.82-.38,2.3-1.17l1.18,.67c-.78,1.2-1.95,1.81-3.52,1.81-1.26,0-2.3-.4-3.1-1.18-.78-.8-1.18-1.81-1.18-3.02s.38-2.21,1.17-3.01c.78-.8,1.79-1.2,3.02-1.2,1.17,0,2.13,.42,2.87,1.25,.75,.82,1.12,1.81,1.12,2.98,0,.21-.02,.42-.05,.62h-6.71Zm0-1.22h5.35c-.24-1.52-1.3-2.32-2.58-2.32-1.49,0-2.53,.91-2.77,2.32Z" style="fill: #fff;"/>
      <path d="M140.36,43.99h-1.63l-2.24-3.02-2.26,3.02h-1.63l3.07-4.11-2.9-3.89h1.65l2.07,2.79,2.06-2.79h1.63l-2.88,3.87,3.06,4.13Z" style="fill: #fff;"/>
      <path d="M147.72,35.99h1.39v8h-1.39v-1.38c-.69,1.06-1.7,1.58-3.03,1.58-1.12,0-2.08-.4-2.87-1.22s-1.18-1.82-1.18-2.99,.4-2.16,1.18-2.98c.78-.82,1.75-1.23,2.87-1.23,1.33,0,2.34,.53,3.03,1.58v-1.38Zm-.82,6.05c.54-.56,.82-1.23,.82-2.05s-.27-1.49-.82-2.03c-.54-.56-1.22-.83-2.03-.83s-1.47,.27-2.02,.83c-.54,.54-.82,1.22-.82,2.03s.27,1.49,.82,2.05c.54,.54,1.22,.82,2.02,.82s1.49-.27,2.03-.82Z" style="fill: #fff;"/>
      <path d="M157.9,35.99v8h-1.39v-6.66h-3.15v3.27c0,2.62-1.1,3.57-3.03,3.39v-1.31c1.09,.14,1.63-.4,1.63-2.11v-4.58h5.94Z" style="fill: #fff;"/>
      <path d="M165.81,35.99h1.12v8h-1.38v-5.62l-4.43,5.62h-1.12v-8h1.38v5.62l4.43-5.62Z" style="fill: #fff;"/>
    </g>
  </g>
</svg>