<?xml version="1.0" encoding="UTF-8"?>
<svg id="Layer_1" data-name="Layer 1" xmlns="http://www.w3.org/2000/svg" viewBox="0 0 100 100">
  <defs>
    <style>
      .cls-1 {
        fill: #e08d48;
      }
    </style>
  </defs>
  <g>
    <path class="cls-1" d="M35.69,66.4c-.56,0-1.09-.28-1.39-.76l-7.16-10.97-.09-.14c-1.53-2.95-4.83-5.57-7.96-4.53l-.78,.25,2.21,3.96c.47,.8,.21,1.82-.59,2.29-.8,.47-1.82,.21-2.29-.59-.02-.03-.04-.06-.05-.1l-3.11-5.71c-.21-.4-.26-.87-.12-1.3,.14-.44,.45-.8,.87-1,.14-.07,.29-.14,.45-.19l2.44-.79c4.9-1.59,9.7,1.85,11.93,6.1l7.11,10.9c.5,.77,.29,1.81-.49,2.31-.02,.01-.04,.03-.06,.04-.27,.17-.59,.25-.91,.23h0Z"/>
    <path class="cls-1" d="M35.77,66.89s-.06,0-.09,0c-.73,0-1.4-.37-1.8-.99l-7.25-11.12c-1.46-2.82-4.53-5.27-7.38-4.32l-.21,.07,1.91,3.43c.29,.49,.37,1.07,.23,1.63-.14,.56-.5,1.03-1,1.33-1.03,.61-2.36,.26-2.97-.76l-3.17-5.82c-.28-.53-.33-1.12-.16-1.69,.18-.57,.59-1.04,1.13-1.3,.16-.08,.33-.15,.5-.21l2.45-.8c5.15-1.68,10.2,1.92,12.52,6.34l7.09,10.86c.65,1,.37,2.35-.63,3-.4,.25-.78,.35-1.17,.35Zm-.07-.99h.01c.22,.01,.44-.04,.63-.16,.31-.2,.49-.47,.56-.77,.06-.31,0-.62-.17-.89l-7.11-10.9c-2.15-4.09-6.73-7.4-11.36-5.9l-2.44,.79c-.12,.04-.25,.1-.38,.16-.3,.14-.52,.4-.62,.71-.09,.31-.06,.64,.09,.92l3.11,5.7c.37,.64,1.1,.83,1.66,.5,.27-.16,.46-.42,.54-.72,.08-.3,.03-.62-.13-.89l-2.51-4.5,1.36-.43c3.37-1.12,6.92,1.62,8.55,4.77l.07,.11,7.15,10.96c.22,.34,.58,.53,.97,.53h.02Z"/>
  </g>
  <g>
    <path class="cls-1" d="M82.06,88.24h-16.6c-.2,0-.4-.04-.59-.11l-38.58-14.31c-.13-.05-.25-.11-.37-.19L1.22,56.62c-.38-.26-.63-.66-.71-1.11-.06-.48,.09-.96,.41-1.32,.09-.12,.19-.24,.3-.35l1.75-1.74c3.66-3.66,9.49-2.75,13.38,0l20.06,11.56h2.71c-1.51-1.9-2.32-4.26-2.3-6.69v-.11l.1-.99c.08-.86,.81-1.52,1.67-1.52h27.34c.41,0,.81,.14,1.11,.41l10.12,8.92h4.9c.92,0,1.67,.75,1.67,1.67s-.75,1.67-1.67,1.67h-5.57c-.41,0-.81-.15-1.11-.42l-10.12-8.92h-25.16c.16,1.41,.71,2.74,1.59,3.85,.78,1.1,1.96,1.85,3.29,2.11h15.73c.92,0,1.67,.75,1.67,1.67s-.75,1.67-1.67,1.67h-15.36c-.17,.01-.35,.01-.52,0h-8.92c-.3,0-.59-.08-.85-.22l-5.77-3.34-14.67-8.48-.14-.1c-2.7-1.94-6.82-2.75-9.15-.42l-.58,.6,22.91,15.74,38.1,14.14h16.31c.92,0,1.67,.75,1.67,1.67s-.75,1.67-1.67,1.67h0Z"/>
    <path class="cls-1" d="M65.45,88.74c-.26,0-.51-.05-.76-.15l-38.56-14.31c-.17-.06-.33-.14-.48-.25L.94,57.03c-.48-.34-.82-.86-.92-1.44-.08-.64,.11-1.27,.53-1.73,.08-.11,.2-.24,.32-.37l1.75-1.74c3.83-3.83,9.95-2.93,14.01-.05l19.91,11.47h1.61c-1.2-1.83-1.84-4-1.83-6.2v-.11l.1-1.04c.1-1.12,1.03-1.96,2.16-1.96h27.35c.51-.05,1.04,.19,1.44,.53l9.98,8.8h4.72c1.19,0,2.17,.97,2.17,2.17s-.97,2.17-2.17,2.17h-5.57c-.53,0-1.04-.2-1.44-.55l-9.98-8.79h-24.39c.22,1.11,.7,2.15,1.4,3.04,.73,1.02,1.79,1.7,2.99,1.93h15.63c1.19,0,2.17,.96,2.17,2.16s-.97,2.17-2.17,2.17h-15.36c-.16,.01-.36,.01-.56,0h-8.89c-.38,0-.76-.1-1.09-.29l-20.62-11.95c-2.54-1.83-6.39-2.62-8.52-.48l-.17,.17,22.37,15.37,37.96,14.09h16.22c1.19,0,2.17,.97,2.17,2.17s-.97,2.17-2.17,2.17h-16.62ZM9.07,50.19c-2.11,0-4.16,.67-5.75,2.26l-1.75,1.74c-.09,.09-.18,.19-.25,.29-.25,.29-.36,.62-.32,.96,.05,.29,.24,.58,.5,.77l24.71,17.01c.08,.06,.16,.1,.25,.13l38.59,14.32c.14,.06,.27,.07,.41,.08h16.6c.65,0,1.18-.53,1.18-1.18s-.53-1.18-1.18-1.18l-16.48-.03-38.21-14.2L3.99,55.09l.98-1.02c2.53-2.53,6.93-1.7,9.8,.37l.14,.09,20.41,11.81c.18,.1,.39,.16,.6,.16h8.92c.18,.01,.34,.01,.49,0h15.39c.65,0,1.18-.53,1.18-1.18s-.53-1.18-1.18-1.18h-15.73c-1.55-.29-2.83-1.11-3.69-2.31-.92-1.16-1.51-2.58-1.68-4.08l-.06-.55h25.9l10.26,9.04c.22,.19,.5,.3,.79,.3h5.57c.65,0,1.18-.53,1.18-1.18s-.53-1.18-1.18-1.18h-5.09l-10.26-9.04c-.22-.19-.53-.27-.79-.29h-27.35c-.61,0-1.12,.46-1.17,1.07l-.1,1v.06c-.02,2.31,.76,4.57,2.19,6.38l.63,.8h-3.86l-20.18-11.62c-2.02-1.43-4.57-2.34-7.03-2.34Z"/>
  </g>
  <g>
    <path class="cls-1" d="M92.37,92.69h-10.3c-.92,0-1.67-.75-1.67-1.67V58.53c0-.92,.75-1.67,1.67-1.67h15.76c.92,0,1.67,.75,1.67,1.67s-.75,1.67-1.67,1.67h-14.09v29.15h8.63c.92,0,1.67,.75,1.67,1.67s-.75,1.67-1.67,1.67ZM54.21,33.96H31.34c-.34,0-.67-.02-1-.07-4.59-.7-7.93-4.7-7.8-9.34-.02-2.92,1.29-5.7,3.57-7.53,2.01-6.35,7.8-9.71,16.72-9.71s14.66,3.34,16.66,9.71c2.27,1.84,3.57,4.62,3.53,7.53,.14,4.64-3.21,8.65-7.8,9.34-.33,.04-.67,.07-1,.07h0Zm-11.39-23.31c-7.61,0-12.19,2.63-13.62,7.8-.1,.38-.33,.71-.66,.93-1.65,1.19-2.62,3.12-2.59,5.16-.13,2.93,1.93,5.51,4.83,6.02,.2,.02,.4,.02,.6,0h22.83c.2,.01,.39,.01,.59,0,2.89-.51,4.96-3.08,4.83-6.02,.05-2.05-.91-3.99-2.57-5.19-.32-.22-.56-.55-.67-.93-1.43-5.14-6.01-7.77-13.56-7.77Z"/>
    <path class="cls-1" d="M92.37,93.18h-10.3c-1.19,0-2.17-.97-2.17-2.17V58.53c0-1.19,.97-2.17,2.17-2.17h15.76c1.19,0,2.17,.97,2.17,2.17s-.97,2.17-2.17,2.17h-13.59v28.16h8.13c1.19,0,2.17,.97,2.17,2.17s-.97,2.17-2.17,2.17Zm-10.3-35.83c-.65,0-1.18,.53-1.18,1.18v32.49c0,.65,.53,1.18,1.18,1.18h10.3c.65,0,1.18-.53,1.18-1.18s-.53-1.18-1.18-1.18h-9.12v-30.14h14.58c.65,0,1.18-.53,1.18-1.18s-.53-1.18-1.18-1.18h-15.76Zm-27.85-22.89H31.34c-.33,.02-.72-.02-1.07-.07-4.83-.73-8.37-4.97-8.23-9.85-.02-3.03,1.3-5.87,3.63-7.81,2.12-6.49,8.04-9.91,17.15-9.91s14.98,3.43,17.09,9.91c2.33,1.95,3.64,4.79,3.6,7.83,.14,4.86-3.39,9.1-8.22,9.82-.36,.05-.71,.07-1.07,.07ZM42.82,7.81c-8.69,0-14.31,3.24-16.25,9.36l-.04,.14-.12,.09c-2.17,1.75-3.4,4.36-3.38,7.15-.12,4.4,3.05,8.2,7.38,8.85,.3,.04,.6,.05,.93,.06h22.87c.31,0,.63-.02,.94-.06,4.33-.65,7.5-4.45,7.37-8.84,.03-2.81-1.19-5.41-3.35-7.16l-.12-.09-.04-.14c-1.93-6.12-7.53-9.36-16.19-9.36Zm-11.73,23.26c-.11,0-.23,0-.34-.01-3.17-.55-5.43-3.36-5.28-6.53-.04-2.17,1.01-4.25,2.79-5.54,.24-.16,.4-.39,.47-.65,1.5-5.42,6.24-8.17,14.1-8.17s12.54,2.74,14.04,8.13c.08,.26,.24,.49,.47,.65,1.8,1.3,2.84,3.4,2.79,5.61,.14,3.14-2.11,5.95-5.24,6.49-.27,.02-.49,.02-.7,0H31.38c-.09,0-.19,.01-.3,.01Zm11.73-19.92c-7.36,0-11.78,2.5-13.14,7.44-.13,.49-.44,.92-.86,1.2-1.51,1.09-2.4,2.87-2.37,4.74-.12,2.71,1.78,5.08,4.42,5.54,.13,0,.3,0,.48,0h22.87c.21,0,.38,.01,.56,0,2.58-.46,4.48-2.82,4.36-5.5,.05-1.92-.84-3.71-2.37-4.82-.41-.28-.71-.7-.85-1.19-1.37-4.92-5.77-7.41-13.09-7.41Z"/>
  </g>
  <g>
    <path class="cls-1" d="M61.5,18.31h-2.96c-.92,0-1.67-.75-1.67-1.67s.75-1.67,1.67-1.67h2.96c.92,0,1.67,.75,1.67,1.67s-.75,1.67-1.67,1.67Zm-34.5,0h-2.96c-.92,0-1.67-.75-1.67-1.67s.75-1.67,1.67-1.67h2.96c.92,0,1.67,.75,1.67,1.67s-.75,1.67-1.67,1.67Zm2.36,20.42c-.92,0-1.67-.75-1.67-1.67v-3.97c0-.92,.75-1.67,1.67-1.67s1.67,.75,1.67,1.67v3.97c0,.92-.75,1.67-1.67,1.67Zm25.81,0c-.92,0-1.67-.75-1.67-1.67v-3.97c0-.92,.75-1.67,1.67-1.67s1.67,.75,1.67,1.67v3.97c0,.92-.75,1.67-1.67,1.67Zm-22.97-12.25c-.44,.01-.86-.15-1.18-.45-.65-.65-.65-1.71,0-2.36,.66-.62,1.7-.62,2.36,0,.65,.65,.65,1.71,0,2.36-.31,.31-.74,.49-1.18,.49v-.04Zm21.19,0c-.44,.01-.86-.15-1.18-.45-.65-.65-.65-1.71,0-2.36,.66-.62,1.7-.62,2.36,0,.65,.65,.65,1.71,0,2.36-.31,.31-.74,.49-1.18,.49v-.04Z"/>
    <path class="cls-1" d="M55.18,39.23c-1.2,0-2.17-.97-2.17-2.17v-3.97c0-1.2,.97-2.17,2.17-2.17s2.17,.97,2.17,2.17v3.97c0,1.19-.97,2.17-2.17,2.17Zm0-7.31c-.65,0-1.18,.53-1.18,1.18v3.97c0,.65,.53,1.18,1.18,1.18s1.18-.53,1.18-1.18v-3.97c0-.65-.53-1.18-1.18-1.18Zm-25.81,7.31c-1.2,0-2.17-.97-2.17-2.17v-3.97c0-1.2,.97-2.17,2.17-2.17s2.17,.97,2.17,2.17v3.97c0,1.19-.97,2.17-2.17,2.17Zm0-7.31c-.65,0-1.18,.53-1.18,1.18v3.97c0,.65,.53,1.18,1.18,1.18s1.18-.53,1.18-1.18v-3.97c0-.65-.53-1.18-1.18-1.18Zm24.03-4.89h-.5v-.09c-.38-.08-.73-.26-1.03-.54-.85-.86-.85-2.23-.01-3.07,.86-.81,2.2-.81,3.05-.01,.86,.86,.85,2.23,.01,3.08-.41,.41-.95,.63-1.53,.63Zm0-3.32c-.3,0-.61,.11-.85,.33-.45,.45-.45,1.19,.01,1.65,.21,.2,.5,.29,.82,.3h.38c.18-.07,.34-.17,.47-.3,.46-.46,.46-1.21,0-1.66-.23-.21-.53-.32-.83-.32Zm-21.19,3.32h-.5v-.09c-.38-.08-.73-.26-1.02-.53-.86-.86-.86-2.23-.01-3.08,.86-.81,2.2-.81,3.05-.01,.86,.86,.86,2.23,.01,3.08-.4,.4-.96,.63-1.53,.63Zm0-3.32c-.3,0-.61,.11-.85,.33-.45,.45-.45,1.19,.01,1.65,.21,.2,.53,.32,.82,.3h.36c.18-.07,.35-.16,.48-.3,.46-.46,.46-1.21,0-1.66-.23-.21-.53-.32-.83-.32Zm29.29-4.89h-2.97c-1.19,0-2.17-.97-2.17-2.17s.97-2.17,2.17-2.17h2.97c1.19,0,2.17,.97,2.17,2.17s-.97,2.17-2.17,2.17Zm-2.97-3.34c-.65,0-1.18,.53-1.18,1.18s.53,1.18,1.18,1.18h2.97c.65,0,1.18-.53,1.18-1.18s-.53-1.18-1.18-1.18h-2.97Zm-31.53,3.34h-2.97c-1.19,0-2.17-.97-2.17-2.17s.97-2.17,2.17-2.17h2.97c1.19,0,2.17,.97,2.17,2.17s-.97,2.17-2.17,2.17Zm-2.97-3.34c-.65,0-1.18,.53-1.18,1.18s.53,1.18,1.18,1.18h2.97c.65,0,1.18-.53,1.18-1.18s-.53-1.18-1.18-1.18h-2.97Z"/>
  </g>
  <g>
    <path class="cls-1" d="M49.43,19.78H29.36c-.92,0-1.67-.75-1.67-1.67s.75-1.67,1.67-1.67h20.06c.92,0,1.67,.75,1.67,1.67s-.75,1.67-1.67,1.67Z"/>
    <path class="cls-1" d="M49.43,20.28H29.36c-1.2,0-2.17-.97-2.17-2.17s.97-2.17,2.17-2.17h20.06c1.2,0,2.17,.97,2.17,2.17s-.97,2.17-2.17,2.17Zm-20.06-3.34c-.65,0-1.18,.53-1.18,1.18s.53,1.18,1.18,1.18h20.06c.65,0,1.18-.53,1.18-1.18s-.53-1.18-1.18-1.18H29.36Z"/>
  </g>
</svg>