<?xml version="1.0" encoding="UTF-8"?>
<svg id="Layer_1" data-name="Layer 1" xmlns="http://www.w3.org/2000/svg" viewBox="0 0 100 100">
  <defs>
    <style>
      .cls-1 {
        fill: #e08d48;
      }
    </style>
  </defs>
  <g>
    <path class="cls-1" d="M87.77,53.11h-31.65c-.44,0-.87-.04-1.3-.1-5.79-.71-10.16-5.98-10.16-12.28-.03-3.91,1.76-7.61,4.83-10.02,2.64-8.61,10.41-13.17,22.5-13.17s19.91,4.56,22.5,13.17c3.06,2.43,4.81,6.14,4.76,10.04,0,6.29-4.42,11.57-10.17,12.28-.43,.05-.87,.08-1.3,.08h0Zm-15.83-32.25c-10.86,0-17.41,3.8-19.46,11.3-.11,.37-.35,.7-.66,.92-2.46,1.77-3.9,4.64-3.85,7.67,0,4.61,3.12,8.48,7.25,8.98,.3,.04,.6,.06,.9,.06h31.65c.3,0,.6-.01,.9-.06,4.15-.5,7.27-4.37,7.27-8.98,.05-3.03-1.4-5.89-3.86-7.65-.32-.22-.55-.54-.65-.92-2.07-7.52-8.61-11.32-19.47-11.32h0Z"/>
    <path class="cls-1" d="M87.81,53.61h-31.69c-.47,0-.93-.04-1.37-.1-6.03-.74-10.59-6.23-10.59-12.77-.03-3.98,1.8-7.82,4.9-10.31,2.76-8.75,10.68-13.37,22.93-13.37s20.22,4.62,22.93,13.38c3.08,2.51,4.88,6.36,4.82,10.34,0,6.53-4.56,12.02-10.61,12.76-.44,.05-.89,.08-1.33,.08Zm-.03-.99h0c.39,0,.83-.02,1.24-.07,5.55-.68,9.74-5.75,9.74-11.78,.05-3.73-1.65-7.34-4.57-9.65l-.12-.1-.04-.15c-2.53-8.39-10.15-12.82-22.03-12.82s-19.46,4.43-22.03,12.82l-.05,.15-.12,.1c-2.93,2.3-4.67,5.9-4.64,9.63,0,6.04,4.18,11.11,9.73,11.79,.42,.06,.83,.09,1.25,.1h31.64Zm.08-2.33s-.06,0-.08,0h-31.64c-.31,0-.64-.02-.96-.06-4.38-.53-7.68-4.6-7.68-9.47-.06-3.19,1.46-6.21,4.05-8.08,.23-.16,.4-.39,.48-.66,2.12-7.73,8.83-11.65,19.94-11.65s17.82,3.93,19.95,11.69c.07,.26,.23,.49,.45,.64,2.6,1.87,4.12,4.88,4.08,8.07,0,4.87-3.31,8.94-7.7,9.46-.28,.04-.58,.06-.88,.06Zm-.08-.99c.28,0,.56-.01,.83-.05,3.9-.47,6.84-4.12,6.84-8.49,.04-2.87-1.32-5.58-3.65-7.25-.41-.28-.71-.7-.84-1.19-2-7.27-8.39-10.96-19-10.96s-17,3.68-18.99,10.94c-.15,.49-.45,.91-.86,1.19-2.33,1.67-3.69,4.39-3.64,7.26,0,4.38,2.93,8.03,6.82,8.5,.28,.04,.56,.06,.83,.05h31.66Z"/>
  </g>
  <g>
    <path class="cls-1" d="M97.88,31.47h-4.16c-.92,0-1.66-.74-1.66-1.66s.74-1.66,1.66-1.66h4.12c.92,0,1.66,.74,1.66,1.66s-.74,1.66-1.66,1.66h.03Zm-47.74,0h-4.11c-.92,0-1.66-.74-1.66-1.66s.74-1.66,1.66-1.66h4.11c.92,0,1.66,.74,1.66,1.66s-.74,1.66-1.66,1.66Zm5.86,29.12h-2.94c-2.9,0-5.26-2.36-5.26-5.26v-5.53c0-.92,.74-1.66,1.66-1.66s1.66,.74,1.66,1.66v5.53c0,1.07,.87,1.95,1.95,1.95h2.94c1.07,0,1.95-.86,1.96-1.94,0,0,0,0,0-.01v-3.72c0-.92,.74-1.66,1.66-1.66s1.66,.74,1.66,1.66v3.72c0,2.91-2.37,5.26-5.28,5.26Zm34.84,0h-2.94c-2.89-.02-5.23-2.37-5.23-5.26v-3.72c0-.92,.74-1.66,1.66-1.66s1.66,.74,1.66,1.66v3.72c0,1.07,.87,1.95,1.95,1.95h2.94c1.08,0,1.95-.87,1.96-1.95v-5.53c0-.92,.74-1.66,1.66-1.66s1.66,.74,1.66,1.66v5.53c0,2.91-2.37,5.27-5.29,5.26,0,0-.01,0-.02,0Zm-34.06-16.19c-1.54,0-2.79-1.24-2.8-2.78,0-1.54,1.24-2.79,2.78-2.8,1.54,0,2.79,1.24,2.8,2.78,0,0,0,.01,0,.02,0,1.53-1.24,2.78-2.78,2.78Zm30.16,0c-1.54,0-2.79-1.24-2.8-2.78,0-1.54,1.24-2.79,2.78-2.8,1.54,0,2.79,1.24,2.8,2.78,0,0,0,.01,0,.02,0,1.53-1.24,2.78-2.78,2.78h0Z"/>
    <path class="cls-1" d="M90.87,61.08h-.01l-.02-.5v.5h-2.94c-3.16-.02-5.73-2.6-5.73-5.76v-3.72c0-1.19,.97-2.15,2.15-2.15s2.15,.97,2.15,2.15v3.72c0,.8,.65,1.45,1.45,1.45h2.94c.8,0,1.46-.65,1.46-1.45v-5.53c0-1.19,.97-2.15,2.15-2.15s2.15,.97,2.15,2.15v5.53c0,1.54-.61,2.99-1.7,4.08-1.09,1.08-2.53,1.68-4.07,1.68Zm-.03-.99h.03c1.27,0,2.47-.49,3.37-1.39,.91-.9,1.4-2.1,1.41-3.38v-5.53c0-.64-.52-1.16-1.16-1.16s-1.16,.52-1.16,1.16v5.53c0,1.35-1.11,2.44-2.45,2.44h-2.94c-1.35,0-2.44-1.1-2.44-2.44v-3.72c0-.64-.52-1.16-1.16-1.16s-1.16,.52-1.16,1.16v3.72c0,2.61,2.13,4.75,4.74,4.77h2.94Zm-34.84,.99h-2.94c-3.17,0-5.75-2.59-5.76-5.76v-5.53c0-1.19,.97-2.15,2.15-2.15s2.15,.97,2.15,2.15v5.53c0,.8,.65,1.45,1.45,1.45h2.95c.39,0,.75-.15,1.02-.42,.28-.27,.43-.64,.43-1.02v-3.72c0-1.19,.97-2.15,2.15-2.15s2.15,.97,2.15,2.15v3.72c0,3.18-2.6,5.76-5.77,5.76Zm-6.55-12.45c-.64,0-1.16,.52-1.16,1.16v5.53c0,2.62,2.15,4.76,4.77,4.77h2.94c2.63,0,4.77-2.14,4.78-4.77v-3.71c0-.64-.52-1.16-1.16-1.16s-1.16,.52-1.16,1.16v3.72c0,.67-.26,1.28-.72,1.74-.46,.46-1.07,.71-1.72,.71h-2.95c-1.35,0-2.44-1.1-2.44-2.44v-5.53c0-.64-.52-1.16-1.16-1.16Zm7.31-3.74c-.87,0-1.69-.34-2.31-.95-.62-.62-.97-1.44-.97-2.32,0-1.81,1.46-3.29,3.27-3.29h.01c.87,0,1.69,.34,2.31,.95,.62,.62,.97,1.44,.97,2.32,0,1.83-1.47,3.29-3.27,3.29h-.01Zm0-5.57h0c-1.26,0-2.29,1.04-2.28,2.3,0,.61,.24,1.19,.68,1.62,.43,.43,1.01,.66,1.62,.66h0c1.26,0,2.28-1.02,2.28-2.28,0-.63-.24-1.21-.68-1.64-.43-.43-1-.66-1.61-.66Zm30.16,5.57c-1.8,0-3.28-1.46-3.28-3.27,0-.88,.33-1.7,.95-2.32,.62-.62,1.44-.97,2.32-.97h.01c.87,0,1.69,.34,2.31,.95,.62,.62,.97,1.44,.97,2.32,0,1.83-1.47,3.29-3.27,3.29h-.01Zm0-5.57h0c-.61,0-1.19,.24-1.62,.68s-.67,1.01-.67,1.62,.24,1.19,.68,1.62c.43,.43,1.05,.66,1.62,.67h0c1.26,0,2.28-1.02,2.28-2.28,0-.63-.24-1.21-.68-1.64-.43-.43-1.01-.66-1.61-.66Zm10.96-7.35h-4.16c-1.19,0-2.15-.97-2.15-2.15s.97-2.15,2.15-2.15h4.12c1.19,0,2.15,.97,2.15,2.15s-.95,2.14-2.12,2.15h0Zm-4.16-3.32c-.64,0-1.16,.52-1.16,1.16s.52,1.16,1.16,1.16h4.12c.64,0,1.16-.52,1.16-1.16s-.52-1.16-1.16-1.16h-4.12Zm-43.58,3.32h-4.11c-1.19,0-2.15-.97-2.15-2.15s.97-2.15,2.15-2.15h4.11c1.19,0,2.15,.97,2.15,2.15s-.97,2.15-2.15,2.15Zm-4.11-3.32c-.64,0-1.16,.52-1.16,1.16s.52,1.16,1.16,1.16h4.11c.64,0,1.16-.52,1.16-1.16s-.52-1.16-1.16-1.16h-4.11Z"/>
  </g>
  <g>
    <path class="cls-1" d="M93.02,33.38H50.88c-.92,0-1.66-.74-1.66-1.66s.74-1.66,1.66-1.66h42.15c.92,0,1.66,.74,1.66,1.66s-.74,1.66-1.66,1.66h0Zm-72.57-2.22c-7.41,0-13.41-6.01-13.41-13.41S13.05,4.33,20.46,4.33s13.41,6.01,13.41,13.41c0,0,0,0,0,.01-.01,7.4-6.01,13.4-13.41,13.4h0Zm0-23.49c-5.58,0-10.1,4.52-10.1,10.1s4.52,10.1,10.1,10.1,10.1-4.52,10.1-10.1c0-5.57-4.52-10.09-10.1-10.1Zm-4.94,88c-3.66,0-6.64-2.97-6.64-6.64V47.65c0-.92,.74-1.66,1.66-1.66s1.66,.74,1.66,1.66v41.42c.26,1.81,1.94,3.07,3.75,2.82,1.46-.21,2.61-1.36,2.82-2.82v-20.46c0-.92,.74-1.66,1.66-1.66s1.66,.74,1.66,1.66v20.46c-.02,3.63-2.94,6.57-6.57,6.6Z"/>
    <path class="cls-1" d="M15.52,96.16h0c-3.93,0-7.13-3.2-7.13-7.13V47.65c0-1.19,.97-2.15,2.15-2.15s2.15,.97,2.15,2.15v41.42c.1,.68,.49,1.34,1.09,1.79,.6,.45,1.35,.64,2.09,.54,1.23-.18,2.22-1.16,2.4-2.4v-20.39c0-1.19,.96-2.15,2.15-2.15s2.15,.97,2.15,2.15v20.46c-.02,3.88-3.19,7.06-7.06,7.1h0Zm-4.98-49.68c-.64,0-1.16,.52-1.16,1.16v41.38c0,3.39,2.75,6.14,6.14,6.14,3.33-.03,6.06-2.77,6.08-6.11v-20.46c0-.64-.52-1.16-1.16-1.16s-1.16,.52-1.16,1.16v20.46c-.24,1.74-1.57,3.07-3.24,3.31-2.08,.3-4.02-1.16-4.31-3.24V47.65c0-.64-.53-1.16-1.17-1.16Zm82.49-12.61H50.88c-1.19,0-2.15-.97-2.15-2.15s.97-2.15,2.15-2.15h42.15c1.19,0,2.15,.97,2.15,2.15s-.97,2.15-2.15,2.15Zm-42.15-3.32c-.64,0-1.16,.52-1.16,1.16s.52,1.16,1.16,1.16h42.15c.64,0,1.16-.52,1.16-1.16s-.52-1.16-1.16-1.16H50.88Zm-30.42,1.09c-7.67,0-13.91-6.24-13.91-13.91S12.79,3.84,20.46,3.84s13.91,6.24,13.91,13.91c-.01,7.67-6.25,13.9-13.91,13.91h0Zm0-26.83c-7.12,0-12.92,5.8-12.92,12.92s5.8,12.92,12.92,12.92c7.11,0,12.91-5.8,12.92-12.91,0-7.13-5.8-12.93-12.92-12.93Zm0,23.53c-5.84,0-10.59-4.75-10.59-10.59S14.62,7.18,20.46,7.18h0c5.83,0,10.58,4.76,10.59,10.59,0,5.84-4.75,10.59-10.59,10.59Zm0-20.19c-5.29,0-9.6,4.31-9.6,9.6s4.31,9.6,9.6,9.6,9.6-4.31,9.6-9.6c0-5.29-4.31-9.6-9.6-9.6h0Z"/>
  </g>
  <g>
    <path class="cls-1" d="M25.4,95.67c-3.66,0-6.64-2.97-6.64-6.64v-20.43c0-.92,.74-1.66,1.66-1.66s1.66,.74,1.66,1.66v20.46c-.28,1.81,.96,3.51,2.77,3.78,1.81,.28,3.51-.96,3.78-2.77,.05-.33,.05-.68,0-1.01V47.65c0-.92,.74-1.66,1.66-1.66s1.66,.74,1.66,1.66v41.42c-.02,3.62-2.94,6.56-6.56,6.6Z"/>
    <path class="cls-1" d="M25.4,96.16h0c-3.93,0-7.13-3.2-7.13-7.13v-20.43c0-1.19,.97-2.15,2.15-2.15s2.15,.97,2.15,2.15v20.46c-.12,.82,.06,1.57,.51,2.17,.45,.61,1.1,1.01,1.85,1.12,.74,.11,1.49-.07,2.1-.51,.61-.45,1.01-1.1,1.12-1.85,.04-.29,.04-.57,0-.86V47.65c0-1.19,.96-2.15,2.15-2.15s2.15,.97,2.15,2.15v41.42c-.02,3.87-3.18,7.05-7.05,7.1h0Zm-4.98-28.72c-.64,0-1.16,.52-1.16,1.16v20.43c0,3.38,2.75,6.14,6.14,6.14,3.33-.04,6.05-2.78,6.07-6.11V47.65c0-.64-.52-1.16-1.16-1.16s-1.16,.52-1.16,1.16v41.42c.05,.31,.05,.7,0,1.09-.15,1.01-.69,1.89-1.51,2.49s-1.83,.85-2.83,.69c-1.01-.16-1.89-.69-2.49-1.51s-.85-1.83-.69-2.83v-20.38c0-.64-.53-1.16-1.17-1.16Z"/>
  </g>
  <g>
    <path class="cls-1" d="M38.77,66.21c-.92,0-1.66-.74-1.66-1.66h0v-18.35c-.01-7.37-5.99-13.34-13.36-13.35h-6.64c-7.35,.03-13.3,6-13.3,13.35v18.35c0,.92-.74,1.66-1.66,1.66s-1.66-.74-1.66-1.66H.5v-18.35c.01-9.2,7.47-16.65,16.67-16.67h6.64c9.19,.03,16.62,7.48,16.63,16.67v18.35c0,.92-.74,1.66-1.66,1.66h0Z"/>
    <path class="cls-1" d="M38.77,66.7c-1.19,0-2.15-.97-2.15-2.15v-18.35c-.01-7.08-5.78-12.85-12.86-12.85h-6.63c-7.06,.03-12.8,5.8-12.81,12.85v18.35c0,1.19-.97,2.15-2.15,2.15s-2.15-.97-2.15-2.15v-18.35c.01-9.45,7.71-17.15,17.16-17.16h6.64c9.43,.03,17.11,7.73,17.13,17.16v18.35c0,1.19-.97,2.15-2.15,2.15Zm-15.02-34.34c7.63,0,13.84,6.22,13.85,13.84v18.35c0,.64,.52,1.16,1.16,1.16s1.16-.52,1.16-1.16v-18.35c-.01-8.89-7.25-16.14-16.14-16.17h-6.63c-8.9,.01-16.16,7.27-16.17,16.17v18.35c0,.64,.52,1.16,1.16,1.16s1.16-.52,1.16-1.16v-18.35c0-7.6,6.2-13.81,13.8-13.84h6.64Z"/>
  </g>
</svg>