<?xml version="1.0" encoding="UTF-8"?>
<svg id="Layer_1" data-name="Layer 1" xmlns="http://www.w3.org/2000/svg" viewBox="0 0 100 100">
  <defs>
    <style>
      .cls-1 {
        fill: #e08d48;
      }
    </style>
  </defs>
  <g>
    <path class="cls-1" d="M40.62,44.7c-1.67,0-3.27-.66-4.45-1.84l-.95-.94c-2.45-2.46-2.45-6.44,0-8.9l8.5-8.48c1.18-1.2,2.8-1.86,4.48-1.84,1.67,0,3.27,.66,4.45,1.84l1.29,1.29c.77,.86,1.83,1.4,2.98,1.53,1.27-.07,2.46-.65,3.3-1.6l6.26-6.28c.61-.54,1.54-.48,2.08,.13,.49,.56,.49,1.39,0,1.94l-6.26,6.28c-1.4,1.57-3.4,2.47-5.51,2.46-1.93-.16-3.73-1.04-5.03-2.47l-1.19-1.19c-.63-.63-1.48-.99-2.37-.98-.89,0-1.75,.35-2.37,.98l-8.5,8.48c-1.3,1.31-1.3,3.43,0,4.75l.95,.94c1.33,1.27,3.42,1.27,4.75,0l7.68-7.34c.57-.57,1.5-.57,2.08,0,.57,.57,.58,1.49,.01,2.06,0,0,0,0-.01,.01l-7.65,7.32c-1.19,1.2-2.82,1.86-4.51,1.84h0Zm-9.1,27.63c-1.33,.01-2.62-.51-3.56-1.46l-.62-.62c-.94-.94-1.46-2.23-1.45-3.56,0-1.32,.52-2.58,1.46-3.5l9.2-9.2c1.94-1.94,5.08-1.94,7.01,0l.62,.61c1.93,1.94,1.93,5.08,0,7.02l-9.15,9.24c-.93,.93-2.19,1.46-3.51,1.46h0Zm-1.44-3.56c.79,.79,2.08,.79,2.87,0,0,0,0,0,0,0l9.2-9.2c.36-.36,.58-.85,.59-1.36,0-.53-.21-1.05-.59-1.42l-.62-.62c-.8-.76-2.06-.76-2.86,0l-9.2,9.16c-.39,.38-.6,.9-.59,1.44,0,.53,.21,1.05,.58,1.42l.62,.58Z"/>
    <path class="cls-1" d="M31.47,72.83c-1.44,0-2.85-.58-3.86-1.61l-.62-.62c-1.03-1.03-1.61-2.46-1.59-3.91,0-1.43,.58-2.84,1.61-3.85l9.19-9.19c2.13-2.12,5.59-2.13,7.71,0l.61,.6c2.12,2.13,2.12,5.6,0,7.73l-9.15,9.24c-1.02,1.02-2.42,1.61-3.86,1.61h-.05Zm8.58-19.78c-1.14,0-2.29,.44-3.15,1.3l-9.2,9.19c-.84,.83-1.32,1.97-1.31,3.15-.01,1.2,.46,2.37,1.3,3.21l.62,.62c.84,.85,2.01,1.3,3.2,1.31h0c1.18,0,2.33-.48,3.16-1.31l9.15-9.24c1.73-1.75,1.73-4.58,0-6.33l-.61-.6c-.87-.87-2.02-1.31-3.16-1.31Zm-8.54,16.82h0c-.67,0-1.3-.26-1.78-.73l-.61-.58c-.48-.48-.74-1.13-.74-1.79,0-.66,.26-1.32,.74-1.79l9.19-9.16c1-.95,2.56-.95,3.55,0l.63,.63c.47,.46,.74,1.11,.74,1.77-.02,.66-.28,1.26-.74,1.72l-9.14,9.14-.1,.2h-.11c-.45,.39-1.02,.6-1.63,.6Zm8.59-13.77c-.39,0-.79,.15-1.09,.44l-9.19,9.15c-.29,.28-.45,.68-.45,1.08,0,.41,.16,.8,.44,1.08l.62,.58c.29,.29,.67,.45,1.08,.45h0c.41,0,.79-.16,1.08-.45h0s9.19-9.2,9.19-9.2c.28-.28,.44-.64,.45-1.03,0-.38-.16-.77-.45-1.05l-.62-.62c-.3-.28-.69-.43-1.08-.43Zm.61-10.9s-.08,0-.12,0c-1.78,0-3.52-.72-4.78-1.98l-.95-.93c-2.64-2.65-2.64-6.95,0-9.6l8.5-8.48c1.27-1.28,3.03-1.97,4.84-1.98h.03c1.77,0,3.51,.72,4.77,1.98l1.29,1.29c.71,.78,1.66,1.27,2.68,1.39,1.05-.06,2.12-.59,2.87-1.44l6.29-6.3c.84-.74,2.08-.66,2.8,.16,.65,.74,.65,1.86,0,2.6l-6.29,6.3c-1.47,1.66-3.57,2.62-5.86,2.6-2.1-.17-4-1.1-5.39-2.63l-1.17-1.17c-.53-.53-1.27-.84-2.02-.84h-.01c-.75,0-1.49,.31-2.02,.84l-8.5,8.48c-1.11,1.11-1.11,2.93,0,4.05l.95,.93c1.13,1.08,2.92,1.08,4.06,0l7.68-7.34c.76-.75,2-.76,2.77,0,.77,.76,.77,2,.02,2.76l-7.68,7.34c-1.25,1.26-2.98,1.98-4.76,1.98Zm-.09-.99h0s.06,0,.09,0c1.52,0,2.99-.61,4.06-1.69l7.66-7.33c.38-.38,.37-.99,0-1.37-.38-.38-1-.38-1.38,0l-7.68,7.35c-1.52,1.45-3.91,1.45-5.43,0l-.96-.94c-1.49-1.5-1.49-3.95,0-5.45l8.5-8.48c.71-.72,1.7-1.13,2.72-1.13,0,0,.01,0,.02,0,1.01,0,2,.41,2.72,1.13l1.18,1.19c1.24,1.36,2.91,2.18,4.72,2.32h.03c1.91,0,3.77-.83,5.06-2.29l6.28-6.3c.3-.34,.3-.9-.02-1.27-.36-.4-.97-.44-1.38-.09l-6.24,6.25c-.9,1.02-2.23,1.67-3.62,1.75-1.35-.15-2.52-.75-3.37-1.69l-1.28-1.28c-1.07-1.08-2.56-1.69-4.07-1.69-.03,0-.06,0-.09,0-1.52,0-3,.61-4.06,1.69l-8.5,8.49c-2.25,2.26-2.25,5.94,0,8.2l.95,.93c1.08,1.09,2.56,1.7,4.1,1.7h0Z"/>
  </g>
  <g>
    <path class="cls-1" d="M25.96,66.77c-1.31,0-2.57-.51-3.5-1.44l-.61-.62c-1.93-1.94-1.93-5.08,0-7.02l9.2-9.2c1.94-1.93,5.08-1.93,7.02,0l.61,.62c1.93,1.94,1.93,5.08,0,7.02l-9.21,9.2c-.93,.92-2.2,1.44-3.51,1.44Zm-1.42-3.56c.79,.79,2.07,.79,2.86,0l9.2-9.2c.79-.79,.79-2.08,0-2.87h0s-.61-.62-.61-.62c-.81-.76-2.06-.76-2.87,0l-9.2,9.21c-.38,.38-.59,.89-.59,1.42,0,.54,.21,1.06,.59,1.44l.62,.62Zm48.37,4.99c-1.32,0-2.58-.52-3.5-1.46-.57-.57-.58-1.49-.01-2.06,0,0,0,0,.01-.01,.57-.57,1.5-.57,2.08,0,.79,.79,2.06,.79,2.85,0,0,0,0,0,0,0l.61-.61c.79-.8,.79-2.08,0-2.87l-24.97-24.99c-.54-.61-.48-1.54,.13-2.08,.56-.49,1.39-.49,1.94,0l24.99,24.99c1.94,1.94,1.94,5.08,0,7.01l-.61,.62c-.93,.93-2.2,1.46-3.52,1.46Z"/>
    <path class="cls-1" d="M72.9,68.7c-1.43,0-2.83-.58-3.84-1.61-.76-.75-.77-1.99-.01-2.76,.78-.78,2.02-.78,2.79-.02,.29,.29,.67,.45,1.08,.45,.37-.02,.79-.16,1.08-.44l.61-.61c.59-.6,.59-1.57,0-2.17l-24.97-24.99c-.74-.84-.66-2.08,.16-2.8,.74-.65,1.86-.65,2.6,0l25.01,25.01c2.13,2.13,2.13,5.59,0,7.71l-.6,.61c-1.04,1.04-2.41,1.61-3.88,1.61h-.01Zm-2.45-3.96c-.25,0-.5,.09-.69,.28-.19,.19-.29,.44-.29,.69,0,.26,.1,.5,.29,.68,.83,.84,1.97,1.32,3.14,1.32h.01c1.2,0,2.33-.47,3.17-1.31l.6-.61c1.74-1.74,1.74-4.57,0-6.32l-24.99-24.99c-.34-.3-.9-.3-1.27,.02-.4,.35-.44,.97-.09,1.38l24.95,24.96c.98,.99,.98,2.59,0,3.57l-.61,.61c-.48,.48-1.11,.74-1.78,.74h0c-.67,0-1.3-.26-1.77-.74-.19-.19-.44-.28-.69-.28Zm-44.51,2.53c-1.44,0-2.8-.56-3.83-1.58l-.61-.62c-2.11-2.13-2.11-5.59,0-7.72l9.2-9.2c2.13-2.12,5.59-2.12,7.72,0l.61,.62c2.11,2.13,2.11,5.59,0,7.72l-9.21,9.2c-1.03,1.02-2.4,1.58-3.84,1.58-.01,0-.03,0-.04,0Zm8.63-19.72c-1.15,0-2.29,.43-3.16,1.3l-9.19,9.19c-1.73,1.74-1.73,4.58,0,6.32l.61,.62c.83,.83,1.94,1.29,3.12,1.29h.04c1.18,0,2.3-.46,3.15-1.29l9.2-9.19c1.73-1.74,1.73-4.58,0-6.32l-.61-.62c-.87-.86-2.01-1.3-3.16-1.3Zm-8.6,16.74c-.64,0-1.29-.24-1.78-.73h0s-.62-.62-.62-.62c-.48-.48-.74-1.11-.74-1.79,0-.66,.27-1.31,.74-1.77l9.19-9.2c1.01-.94,2.56-.94,3.56-.01l.62,.63c.48,.48,.74,1.11,.74,1.78,0,.67-.26,1.31-.74,1.78l-9.19,9.2c-.49,.49-1.14,.73-1.78,.73Zm-1.08-1.43c.6,.59,1.57,.59,2.16,0l9.19-9.19c.29-.29,.45-.67,.45-1.08,0-.41-.16-.79-.45-1.08l-.61-.62c-.6-.56-1.56-.56-2.18,.02l-9.18,9.2c-.29,.28-.45,.67-.45,1.07,0,.41,.16,.8,.45,1.09l.62,.62Z"/>
  </g>
  <g>
    <path class="cls-1" d="M67.37,73.73c-1.33,.02-2.62-.5-3.56-1.45-.57-.61-.55-1.56,.06-2.14s1.56-.55,2.14,.06c.38,.38,.89,.59,1.42,.59,.54,0,1.06-.21,1.44-.59l.62-.61c.78-.8,.78-2.07,0-2.87l-5.4-5.4c-.54-.61-.48-1.54,.13-2.08,.56-.49,1.39-.49,1.94,0l5.4,5.4c1.94,1.94,1.94,5.08,0,7.02l-.62,.61c-.94,.95-2.23,1.47-3.57,1.45h0Z"/>
    <path class="cls-1" d="M67.45,74.23c-.05,0-.1,0-.15,0-1.43,0-2.83-.58-3.84-1.59-.38-.4-.57-.91-.56-1.44,.01-.54,.24-1.03,.63-1.4,.8-.76,2.08-.73,2.84,.08,.27,.28,.66,.44,1.06,.44h0c.4,0,.8-.16,1.08-.45l.62-.61c.58-.59,.58-1.57,0-2.17l-5.39-5.39c-.74-.84-.66-2.08,.16-2.8,.74-.65,1.86-.65,2.6,0l5.42,5.42c2.13,2.13,2.13,5.59,0,7.72l-.62,.61c-1.01,1.01-2.4,1.59-3.84,1.59Zm-.08-.99h0c1.2,0,2.37-.45,3.21-1.3l.62-.61c1.74-1.74,1.74-4.58,0-6.32l-5.4-5.4c-.35-.3-.9-.3-1.27,.02-.4,.35-.44,.97-.09,1.38l5.38,5.38c.97,.99,.97,2.58,0,3.57l-.62,.61c-.46,.47-1.11,.74-1.78,.74,0,0-.01,0-.01,0-.66,0-1.31-.27-1.77-.74-.19-.2-.45-.32-.72-.32-.26,0-.53,.09-.73,.28-.41,.38-.42,1.03-.04,1.44,.83,.84,2.02,1.31,3.19,1.29h0Z"/>
  </g>
  <g>
    <path class="cls-1" d="M56.33,84.78c-1.33,.02-2.62-.5-3.56-1.45l-3.76-3.76c-.57-.57-.58-1.49-.01-2.06,0,0,0,0,.01-.01,.57-.57,1.5-.57,2.08,0l3.81,3.82c.8,.76,2.06,.76,2.86,0l.62-.62c.38-.38,.6-.9,.59-1.44,0-.37-.1-.74-.3-1.06-.12-.1-.24-.21-.36-.32l-4.12-4.12c-.54-.61-.49-1.54,.12-2.08,.55-.49,1.38-.5,1.94-.01l4.18,4.06c.12,.12,.23,.24,.33,.37,.32,.19,.68,.3,1.06,.3,.54,0,1.06-.21,1.44-.59l.62-.61c.78-.8,.78-2.07,0-2.87l-4.52-4.63c-.57-.56-.59-1.47-.03-2.05,0,0,.02-.02,.03-.03,.57-.57,1.5-.57,2.08,0l4.57,4.57c1.92,1.94,1.92,5.06,0,7l-.62,.61c-.91,.92-2.15,1.44-3.44,1.45,0,1.29-.53,2.53-1.45,3.44l-.61,.62c-.94,.95-2.22,1.48-3.56,1.47Zm-19.26-6.89c-1.33,.01-2.61-.51-3.56-1.45l-.61-.62c-1.94-1.94-1.94-5.08,0-7.02l7.12-7.12c.94-.95,2.22-1.47,3.56-1.46,1.33-.01,2.62,.51,3.56,1.46l.62,.61c1.94,1.94,1.94,5.08,0,7.02l-7.12,7.12c-.95,.95-2.23,1.47-3.57,1.46h0Zm-1.44-3.56c.8,.78,2.07,.78,2.87,0l7.12-7.12c.79-.79,.79-2.08,0-2.87h0s-.61-.61-.61-.61c-.38-.39-.9-.6-1.44-.59-.54,0-1.05,.21-1.42,.59l-7.12,7.12c-.79,.79-.79,2.08,0,2.87,0,0,0,0,0,0l.59,.61Z"/>
    <path class="cls-1" d="M56.26,85.27c-1.43,0-2.83-.58-3.84-1.59l-3.76-3.76c-.76-.76-.77-2-.01-2.76,.78-.78,2.02-.78,2.79-.02l3.81,3.82c.6,.57,1.56,.57,2.17,0l.61-.61c.29-.29,.45-.67,.45-1.08,0-.26-.06-.51-.19-.73-.11-.09-.22-.19-.32-.3l-4.12-4.12c-.74-.83-.67-2.08,.14-2.8,.74-.66,1.85-.66,2.6-.01l4.2,4.08c.11,.11,.21,.22,.31,.34,.22,.12,.5,.15,.73,.19,.43,0,.8-.16,1.09-.45l.62-.61c.58-.59,.58-1.57,0-2.17l-4.52-4.63c-.76-.74-.78-1.97-.03-2.74,.8-.8,2.05-.8,2.81-.04l4.57,4.57c2.11,2.12,2.11,5.58,0,7.7l-.62,.61c-.89,.9-2.06,1.45-3.31,1.57-.11,1.26-.66,2.42-1.57,3.32l-.6,.61c-1.03,1.04-2.47,1.6-3.91,1.62-.02,0-.05,0-.07,0Zm-6.21-7.71c-.25,0-.5,.09-.69,.28-.19,.19-.29,.44-.29,.69,0,.26,.1,.5,.29,.68l3.76,3.76c.84,.84,2.01,1.3,3.2,1.3h.01c1.23,0,2.36-.47,3.2-1.32l.6-.62c.84-.83,1.3-1.93,1.31-3.1v-.49s.49,0,.49,0c1.17,0,2.27-.47,3.09-1.3l.62-.61c1.72-1.73,1.72-4.56,0-6.3l-4.57-4.57c-.38-.38-1-.38-1.38,0-.39,.4-.38,1,0,1.37l4.53,4.64c.96,.98,.96,2.58,0,3.56l-.62,.61c-.46,.47-1.11,.73-1.78,.73,0,0-.01,0-.02,0-.46,0-.91-.13-1.31-.37l-.12-.11c-.09-.12-.19-.23-.3-.33l-4.17-4.05c-.35-.3-.9-.3-1.27,.03-.4,.36-.44,.98-.08,1.38l4.1,4.1c.1,.1,.2,.2,.32,.28l.12,.13c.24,.4,.37,.85,.37,1.31,0,.67-.26,1.31-.74,1.79l-.62,.62c-1,.95-2.56,.95-3.55,0l-3.82-3.83c-.19-.19-.44-.28-.69-.28Zm-13.02,.82c-1.44,0-2.84-.58-3.86-1.59l-.61-.62c-2.12-2.13-2.12-5.59,0-7.72l7.12-7.12c1.03-1.04,2.46-1.61,3.91-1.6,1.48-.02,2.88,.57,3.91,1.61l.61,.6c2.13,2.13,2.13,5.6,0,7.73l-7.12,7.12c-1.03,1.03-2.45,1.61-3.92,1.6h-.05Zm6.52-17.67c-1.19,0-2.34,.48-3.17,1.31l-7.12,7.12c-1.74,1.74-1.74,4.58,0,6.32l.61,.62c.84,.83,2.01,1.3,3.2,1.3h0c1.22,.02,2.37-.47,3.22-1.31l7.12-7.12c1.74-1.74,1.74-4.58,0-6.32l-.61-.6c-.85-.85-2.02-1.33-3.21-1.32h-.05Zm-6.47,14.69c-.65,0-1.29-.24-1.78-.72l-.6-.61c-.98-.99-.98-2.59,0-3.57l7.12-7.12c.46-.48,1.12-.73,1.78-.74,.66,0,1.31,.26,1.78,.74l.46,.46h.1l.1,.21c.44,.47,.68,1.08,.68,1.72,0,.67-.26,1.31-.74,1.78l-7.12,7.12c-.49,.48-1.14,.72-1.79,.72Zm-1.08-1.43c.6,.58,1.58,.58,2.18,0l7.12-7.12c.29-.29,.45-.67,.45-1.08,0-.41-.16-.79-.45-1.08h0s-.61-.61-.61-.61c-.28-.29-.68-.46-1.08-.45-.38,.02-.8,.16-1.07,.44l-7.12,7.12c-.55,.55-.6,1.42-.13,2.02h0l.72,.75Z"/>
  </g>
  <g>
    <path class="cls-1" d="M42.63,83.44c-1.32-.01-2.58-.55-3.5-1.49l-.62-.62c-1.93-1.94-1.93-5.07,0-7.01l5.08-5.08c1.94-1.93,5.08-1.93,7.02,0l.61,.61c1.94,1.94,1.94,5.08,0,7.02l-5.08,5.08c-.92,.95-2.19,1.49-3.51,1.49Zm4.47-12.67c-.54,0-1.06,.21-1.44,.59l-5.08,5.08c-.79,.79-.79,2.06,0,2.85,0,0,0,0,0,0l.62,.62c.79,.79,2.07,.79,2.86,0l5.09-5.09c.78-.8,.78-2.07,0-2.87l-.62-.61c-.38-.38-.9-.59-1.44-.58Zm-4.41-42.45c-.39,0-.76-.15-1.03-.43l-5.65-5.64c-.57-.57-.57-1.5,0-2.08,.57-.57,1.49-.58,2.06-.01,0,0,0,0,.01,.01l5.65,5.64c.57,.58,.56,1.51-.02,2.08-.27,.27-.64,.42-1.03,.42h0Zm-17.03,27.53c-.39,0-.76-.15-1.03-.43l-10.68-10.68c-.61-.54-.67-1.47-.13-2.08s1.47-.67,2.08-.13c.05,.04,.09,.09,.13,.13l10.68,10.68c.57,.58,.56,1.51-.02,2.08-.27,.27-.64,.42-1.03,.42Zm46.75,1.72c-.39,0-.76-.16-1.03-.44-.57-.57-.58-1.49-.01-2.06,0,0,0,0,.01-.01l12.62-12.62c.61-.54,1.54-.48,2.08,.13,.49,.56,.49,1.39,0,1.94l-12.62,12.62c-.27,.28-.65,.44-1.04,.44Z"/>
    <path class="cls-1" d="M42.63,83.93h0c-1.44-.01-2.85-.61-3.85-1.64l-.61-.61c-2.11-2.13-2.11-5.59,0-7.71l5.08-5.08c2.13-2.12,5.59-2.12,7.72,0l.61,.61c2.13,2.13,2.13,5.59,0,7.72l-5.08,5.08c-1,1.03-2.41,1.63-3.86,1.64h0Zm4.47-15.64c-1.15,0-2.29,.43-3.16,1.3l-5.08,5.08c-1.73,1.74-1.73,4.57,0,6.31l.62,.62c.83,.85,1.97,1.34,3.15,1.35,1.18,0,2.33-.5,3.16-1.34l5.08-5.08c1.74-1.74,1.74-4.58,0-6.32l-.6-.61c-.87-.87-2.02-1.3-3.16-1.3Zm-4.47,12.71c-.64,0-1.29-.24-1.78-.73l-.62-.62c-.48-.48-.74-1.11-.74-1.79,0-.67,.26-1.3,.74-1.78l5.08-5.08c.47-.47,1.12-.74,1.78-.74,.01,0,.02,0,.02,0,.66,0,1.3,.26,1.77,.72l.62,.6c.97,.99,.97,2.59,0,3.57l-5.09,5.09c-.49,.49-1.14,.73-1.78,.73Zm4.46-9.73c-.4,0-.79,.16-1.08,.45l-5.08,5.08c-.29,.29-.45,.67-.45,1.08,0,.41,.16,.79,.44,1.08l.62,.62c.6,.59,1.57,.59,2.16,0l5.09-5.09c.58-.6,.58-1.57,0-2.18l-.61-.6c-.29-.28-.64-.47-1.08-.44h-.01Zm25.3-13.21c-.52,0-1.02-.22-1.38-.59-.76-.75-.76-1.98,0-2.75l12.64-12.64c.42-.37,.92-.53,1.45-.51,.52,.03,1,.27,1.35,.67,.65,.74,.65,1.86,0,2.6l-12.65,12.65c-.36,.37-.92,.59-1.4,.58Zm12.57-15.51c-.24,0-.46,.09-.64,.24l-12.6,12.6c-.38,.39-.38,1,0,1.37,.18,.19,.44,.32,.68,.3h0c.26,0,.51-.11,.69-.29l12.63-12.63c.3-.34,.3-.9-.02-1.27-.17-.2-.41-.31-.67-.33-.02,0-.04,0-.06,0Zm-59.31,13.79h0c-.52,0-1.01-.2-1.38-.57l-10.68-10.68c-.37-.32-.61-.8-.64-1.33s.14-1.03,.49-1.42c.71-.81,1.96-.89,2.77-.18,.07,.06,.12,.12,.18,.18l10.66,10.65c.37,.38,.57,.87,.57,1.4,0,.52-.21,1.02-.59,1.39-.37,.36-.86,.56-1.37,.57Zm-10.74-13.68c-.27,0-.54,.11-.74,.33-.17,.2-.26,.45-.24,.71,.02,.26,.13,.5,.33,.67l10.7,10.7c.36,.36,1,.36,1.36,0,.19-.18,.29-.43,.29-.69,0-.26-.1-.51-.28-.69l-10.67-10.67c-.05-.06-.08-.09-.11-.12-.18-.16-.41-.24-.64-.24Zm27.76-13.84h0c-.52,0-1.01-.2-1.38-.57l-5.65-5.64c-.76-.77-.76-2.01,0-2.78,.76-.77,2-.77,2.76-.02l5.66,5.65c.37,.38,.57,.87,.57,1.4,0,.52-.21,1.02-.59,1.39-.37,.36-.86,.56-1.37,.56Zm-5.65-8.57c-.25,0-.5,.1-.68,.29-.38,.38-.38,1,0,1.38l5.65,5.63c.36,.36,1,.36,1.36,0,.19-.18,.29-.43,.29-.69,0-.26-.1-.51-.28-.69l-5.64-5.63c-.19-.19-.44-.29-.69-.29Z"/>
  </g>
  <g>
    <path class="cls-1" d="M3.61,63.96c-.66,0-1.24-.45-1.41-1.09C-4.9,36.46,10.77,9.3,37.17,2.21c21.04-5.65,43.3,3.12,54.83,21.6,.39,.72,.12,1.61-.6,1.99-.65,.35-1.46,.16-1.9-.44C75.89,3.54,47.15-3.1,25.33,10.53,7.94,21.39-.3,42.34,5.03,62.14c.22,.77-.23,1.57-1,1.78,0,0-.02,0-.03,0-.13,.03-.26,.03-.39,.02h0Zm46.5,35.56c-17.11,.03-33.02-8.77-42.08-23.28-.47-.66-.32-1.58,.34-2.05,.66-.47,1.58-.32,2.05,.34,.04,.05,.07,.1,.1,.16,13.61,21.82,42.34,28.48,64.16,14.86,17.54-10.94,25.77-32.15,20.2-52.06-.28-.76,.11-1.61,.87-1.89,.76-.28,1.61,.11,1.89,.87,.03,.07,.05,.15,.06,.22,5.81,21.16-2.91,43.63-21.47,55.34-7.83,4.89-16.88,7.49-26.11,7.49h0Z"/>
    <path class="cls-1" d="M50.01,100.01c-17.36,0-33.21-8.78-42.41-23.51-.29-.4-.41-.92-.32-1.44s.37-.97,.8-1.28c.88-.63,2.11-.43,2.74,.46,.05,.07,.09,.14,.13,.21,13.43,21.53,41.91,28.13,63.46,14.68,17.24-10.76,25.46-31.94,19.98-51.51-.17-.46-.15-.99,.07-1.47,.22-.48,.61-.84,1.11-1.02,.49-.18,1.03-.16,1.5,.06s.84,.61,1.02,1.11c.04,.1,.06,.2,.08,.3,5.9,21.49-2.82,43.95-21.7,55.85-7.92,4.95-17.03,7.56-26.37,7.56-.04,0-.07,0-.11,0ZM9.21,74.4c-.2,0-.39,.06-.57,.18-.21,.15-.35,.38-.4,.63-.04,.26,.02,.52,.17,.73,9.03,14.46,24.57,23.07,41.59,23.07h.11c9.15,0,18.08-2.56,25.84-7.41,18.51-11.67,27.05-33.69,21.26-54.79-.02-.08-.03-.13-.05-.18-.09-.25-.27-.44-.51-.55-.24-.11-.5-.12-.75-.03-.51,.19-.77,.75-.58,1.25,5.61,20.03-2.79,41.66-20.4,52.65-22.02,13.74-51.11,7-64.84-15.02-.03-.06-.06-.1-.08-.13-.19-.27-.49-.41-.8-.41Zm-5.51-9.95s-.08,0-.12,0c-.87-.02-1.64-.61-1.87-1.46C-5.43,36.36,10.42,8.88,37.05,1.73c21.39-5.74,43.65,3.02,55.38,21.81,.26,.49,.32,1.02,.17,1.52-.15,.5-.49,.92-.95,1.17-.87,.47-1.96,.22-2.53-.59C75.63,4.07,47.15-2.51,25.6,10.95,8.27,21.77,.2,42.29,5.51,62.01c.14,.5,.07,1.02-.18,1.47-.25,.45-.67,.78-1.17,.92-.18,.04-.32,.05-.46,.05ZM50.17,.98c-4.26,0-8.58,.56-12.87,1.71C11.2,9.7-4.34,36.63,2.67,62.74c.12,.42,.5,.72,.94,.73h.03c.08,0,.17,0,.26-.01,.23-.07,.44-.23,.56-.45s.16-.48,.09-.72C-.87,42.12,7.38,21.16,25.07,10.11,47.09-3.64,76.18,3.08,89.94,25.1c.27,.37,.81,.5,1.24,.26,.23-.12,.4-.33,.47-.58,.07-.25,.05-.51-.08-.74C82.44,9.41,66.76,.98,50.17,.98Z"/>
  </g>
  <g>
    <path class="cls-1" d="M90.92,26.18c-.11,.02-.22,.02-.33,0l-13.49-3.14c-.8-.13-1.35-.88-1.22-1.69s.88-1.35,1.69-1.22c.07,.01,.13,.03,.2,.05l11.97,2.78,2.78-12c.19-.79,.98-1.28,1.77-1.1,.79,.19,1.28,.98,1.09,1.77l-3.08,13.43c-.15,.64-.71,1.1-1.36,1.13ZM6.06,90.25c-.11,.01-.22,.01-.33,0-.79-.18-1.28-.97-1.1-1.76l3.11-13.5c.09-.38,.32-.71,.65-.91,.33-.2,.73-.26,1.1-.18l13.43,3.11c.8,.13,1.35,.88,1.22,1.69s-.88,1.35-1.69,1.22c-.07-.01-.13-.03-.2-.05l-12.02-2.78-2.75,11.97c-.13,.68-.73,1.18-1.42,1.19Z"/>
    <path class="cls-1" d="M5.89,90.75c-.07,0-.15,0-.22-.01-1.11-.25-1.77-1.31-1.53-2.36l3.11-13.5c.12-.51,.43-.95,.87-1.22,.45-.27,.97-.35,1.47-.24l13.43,3.11c1.04,.17,1.77,1.18,1.6,2.25-.17,1.07-1.18,1.8-2.25,1.63-.09-.01-.17-.03-.26-.06l-11.5-2.66-2.64,11.49c-.17,.89-.96,1.55-1.88,1.57-.06,0-.13,0-.19,0Zm3.26-16.4c-.18,0-.36,.05-.51,.14-.22,.13-.37,.35-.43,.6l-3.11,13.5c-.12,.52,.21,1.04,.73,1.16,.02,0,.09,0,.17,0h.05c.46,0,.86-.34,.94-.79l2.87-12.47,12.5,2.89c.07,.02,.12,.03,.16,.04,.54,.09,1.03-.28,1.12-.81,.09-.53-.28-1.03-.81-1.12l-13.46-3.11c-.07-.02-.15-.03-.22-.03ZM90.75,26.69c-.08,0-.16,0-.24-.02l-13.53-3.15c-1.04-.17-1.77-1.18-1.59-2.25,.17-1.07,1.18-1.81,2.25-1.63,.09,.01,.17,.03,.26,.06l11.46,2.66,2.66-11.51c.25-1.05,1.31-1.71,2.36-1.48,1.06,.25,1.71,1.31,1.47,2.36l-3.08,13.43c-.2,.84-.94,1.46-1.8,1.51-.07,0-.14,.02-.22,.02Zm-13.42-6.08c-.47,0-.89,.34-.96,.82-.09,.53,.28,1.03,.81,1.12l13.52,3.15s.08,0,.14,0h.05c.43-.03,.8-.33,.91-.75l3.08-13.43c.12-.52-.2-1.05-.72-1.17-.52-.11-1.05,.21-1.17,.74l-2.89,12.47-12.45-2.89c-.07-.02-.12-.03-.16-.04-.05,0-.1-.01-.16-.01Z"/>
  </g>
</svg>